<?xml version="1.0" encoding="UTF-8"?>
<svg width="534px" height="78px" viewBox="0 0 534 78" version="1.1" xmlns="http://www.w3.org/2000/svg" xmlns:xlink="http://www.w3.org/1999/xlink">
    <title>BanklessTime_logo_white</title>
    <g id="Page-4" stroke="none" stroke-width="1" fill="none" fill-rule="evenodd">
        <g id="BanklessTimes-Logo-v4" transform="translate(-465.000000, -806.000000)">
            <g id="BanklessTime_logo_white" transform="translate(465.000000, 806.000000)">
                <rect id="Rectangle" x="0" y="0" width="534" height="78"></rect>
                <g id="BanklessTimes" transform="translate(104.610000, 14.960000)" fill-rule="nonzero">
                    <path d="M9.38,39.13 L9.38,26.6 L21.84,26.6 C26.18,26.6 28.84,28.42 28.84,32.48 C28.84,36.26 26.18,39.13 21.7,39.13 L9.38,39.13 Z M21.07,8.61 C25.62,8.61 27.51,10.08 27.51,13.65 C27.51,16.94 25.48,18.69 21.63,18.69 L9.38,18.69 L9.38,8.61 L21.07,8.61 Z M20.93,47.04 C32.62,47.04 38.29,41.65 38.29,33.18 C38.29,26.53 35.14,23.38 31.22,21.91 C34.44,20.58 36.89,17.22 36.89,13.23 C36.89,5.46 31.99,0.56 22.89,0.56 L0,0.56 L0,47.04 L20.93,47.04 Z" id="Shape" fill="#FFFFFF"></path>
                    <path d="M61.25,33.95 C61.18,38.01 57.68,41.44 52.99,41.44 C50.12,41.44 48.58,40.18 48.58,37.59 C48.58,34.65 50.26,33.18 55.44,32.2 C58.8,31.57 60.41,31.08 61.32,30.17 L61.25,33.95 Z M70.42,47.04 L70.42,25.27 C70.42,16.59 66.64,11.69 55.72,11.69 C44.66,11.69 40.74,16.66 40.6,23.8 L49.07,23.8 C49.49,20.72 51.17,18.69 55.3,18.69 C58.87,18.69 61.11,20.02 61.11,22.26 C61.11,24.64 59.85,25.55 55.3,26.18 C46.13,27.44 39.48,28.56 39.48,38.5 C39.48,44.1 43.12,47.95 50.96,47.95 C55.58,47.95 59.22,46.34 61.39,43.96 C61.46,45.01 61.67,46.2 61.95,47.04 L70.42,47.04 Z" id="Shape" fill="#FFFFFF"></path>
                    <path d="M105.63,47.04 L105.63,23.17 C105.63,15.68 100.8,11.69 94.22,11.69 C88.69,11.69 85.19,13.79 83.09,17.64 L83.09,12.6 L74.41,12.6 L74.41,47.04 L83.51,47.04 L83.51,27.3 C83.51,22.05 85.82,19.39 90.58,19.39 C94.92,19.39 96.46,20.86 96.46,26.18 L96.46,47.04 L105.63,47.04 Z" id="Path" fill="#FFFFFF"></path>
                    <polygon id="Path" fill="#FFFFFF" points="140.98 47.04 129.71 25.27 141.26 12.6 130.13 12.6 118.79 25.69 118.79 0 109.62 0 109.62 47.04 118.79 47.04 118.79 36.12 123.2 31.57 130.76 47.04"></polygon>
                    <polygon id="Path" fill="#FFFFFF" points="152.53 47.04 152.53 0 143.43 0 143.43 47.04"></polygon>
                    <path d="M164.99,26.46 C165.34,21.7 168.35,18.9 171.99,18.9 C175.56,18.9 178.92,21.35 179.06,26.46 L164.99,26.46 Z M188.44,32.2 C188.44,18.55 182.84,11.69 172.27,11.69 C161.7,11.69 155.61,18.55 155.61,29.19 C155.61,41.65 161.35,47.95 172.83,47.95 C180.18,47.95 185.85,43.96 187.95,36.89 L178.57,36.89 C177.94,39.27 175.35,40.74 172.41,40.74 C167.93,40.74 164.99,37.38 164.71,32.2 L188.44,32.2 Z" id="Shape" fill="#FFFFFF"></path>
                    <path d="M221.06,23.03 C220.57,15.61 216.09,11.69 206.15,11.69 C195.65,11.69 191.66,16.1 191.66,21.91 C191.66,24.99 192.78,27.65 196,29.68 C198.45,31.22 201.67,32.2 207.48,33.6 C210.42,34.3 213.01,35.07 213.01,37.52 C213.01,40.11 210.14,41.09 206.92,41.09 C202.51,41.09 199.78,39.2 199.78,35.98 L190.4,35.98 C190.54,42.98 196.42,47.95 206.99,47.95 C216.79,47.95 222.04,43.68 222.04,36.54 C222.04,32.06 220.01,29.68 216.37,28.21 C213.71,27.16 210,26.39 206.08,25.27 C202.37,24.22 200.48,23.38 200.48,21.35 C200.48,19.32 202.44,18.48 205.87,18.48 C210,18.48 211.82,19.67 212.31,23.03 L221.06,23.03 Z" id="Path" fill="#FFFFFF"></path>
                    <path d="M254.1,23.03 C253.61,15.61 249.13,11.69 239.19,11.69 C228.69,11.69 224.7,16.1 224.7,21.91 C224.7,24.99 225.82,27.65 229.04,29.68 C231.49,31.22 234.71,32.2 240.52,33.6 C243.46,34.3 246.05,35.07 246.05,37.52 C246.05,40.11 243.18,41.09 239.96,41.09 C235.55,41.09 232.82,39.2 232.82,35.98 L223.44,35.98 C223.58,42.98 229.46,47.95 240.03,47.95 C249.83,47.95 255.08,43.68 255.08,36.54 C255.08,32.06 253.05,29.68 249.41,28.21 C246.75,27.16 243.04,26.39 239.12,25.27 C235.41,24.22 233.52,23.38 233.52,21.35 C233.52,19.32 235.48,18.48 238.91,18.48 C243.04,18.48 244.86,19.67 245.35,23.03 L254.1,23.03 Z" id="Path" fill="#FFFFFF"></path>
                    <polygon id="Path" fill="#22E6AA" points="279.86 47.04 279.86 8.68 293.93 8.68 293.93 0.56 256.13 0.56 256.13 8.68 270.13 8.68 270.13 47.04"></polygon>
                    <path d="M305.76,47.04 L305.76,12.6 L296.66,12.6 L296.66,47.04 L305.76,47.04 Z M305.76,8.47 L305.76,0 L296.66,0 L296.66,8.47 L305.76,8.47 Z" id="Shape" fill="#22E6AA"></path>
                    <path d="M359.17,47.04 L359.17,23.17 C359.17,16.73 354.34,11.69 347.41,11.69 C343.07,11.69 339.99,13.37 338.1,17.15 C335.44,13.16 333.2,11.69 328.51,11.69 C323.96,11.69 320.74,13.09 318.43,17.64 L318.43,12.6 L309.89,12.6 L309.89,47.04 L318.99,47.04 L318.99,26.11 C318.99,21.63 320.88,19.39 324.52,19.39 C328.51,19.39 329.98,20.79 329.98,26.32 L329.98,47.04 L339.08,47.04 L339.08,26.46 C339.08,22.26 341.53,19.11 344.89,19.11 C348.11,19.11 350.28,22.05 350.28,26.18 L350.28,47.04 L359.17,47.04 Z" id="Path" fill="#22E6AA"></path>
                    <path d="M371.28,26.46 C371.63,21.7 374.64,18.9 378.28,18.9 C381.85,18.9 385.21,21.35 385.35,26.46 L371.28,26.46 Z M394.73,32.2 C394.73,18.55 389.13,11.69 378.56,11.69 C367.99,11.69 361.9,18.55 361.9,29.19 C361.9,41.65 367.64,47.95 379.12,47.95 C386.47,47.95 392.14,43.96 394.24,36.89 L384.86,36.89 C384.23,39.27 381.64,40.74 378.7,40.74 C374.22,40.74 371.28,37.38 371,32.2 L394.73,32.2 Z" id="Shape" fill="#22E6AA"></path>
                    <path d="M427.35,23.03 C426.86,15.61 422.38,11.69 412.44,11.69 C401.94,11.69 397.95,16.1 397.95,21.91 C397.95,24.99 399.07,27.65 402.29,29.68 C404.74,31.22 407.96,32.2 413.77,33.6 C416.71,34.3 419.3,35.07 419.3,37.52 C419.3,40.11 416.43,41.09 413.21,41.09 C408.8,41.09 406.07,39.2 406.07,35.98 L396.69,35.98 C396.83,42.98 402.71,47.95 413.28,47.95 C423.08,47.95 428.33,43.68 428.33,36.54 C428.33,32.06 426.3,29.68 422.66,28.21 C420,27.16 416.29,26.39 412.37,25.27 C408.66,24.22 406.77,23.38 406.77,21.35 C406.77,19.32 408.73,18.48 412.16,18.48 C416.29,18.48 418.11,19.67 418.6,23.03 L427.35,23.03 Z" id="Path" fill="#22E6AA"></path>
                </g>
                <path d="M50.8421046,25.7612329 L61.2920081,32.6296181 L54.0162617,37.7063378 L48.0965505,33.8430753 L21.9137101,51.0472455 L48.0965505,68.245855 L74.2829616,51.0472455 L66.0201408,45.6197012 L73.5124853,40.6540599 L82.9973184,46.8352747 C85.3108234,48.3429735 85.9640584,51.4406713 84.4563596,53.7541763 C84.080067,54.3315826 83.5884667,54.8249607 83.0124225,55.2033353 L50.841758,76.3346332 C49.1753112,77.4292386 47.0178309,77.4291762 45.3514474,76.3344742 L13.2198515,55.2261758 C10.911892,53.7100016 10.2700232,50.6099287 11.7861975,48.3019693 C12.1611599,47.7311918 12.649074,47.2432777 13.2198515,46.8683152 L45.3505743,25.7605904 C47.0174007,24.6655975 49.1755344,24.66585 50.8421046,25.7612329 Z M50.9069664,1.88357614 L83.0385624,22.9918746 C85.3465218,24.5080488 85.9883906,27.6081217 84.4722164,29.9160811 C84.097254,30.4868586 83.6093398,30.9747727 83.0385624,31.3497351 L50.9078396,52.45746 C49.2410131,53.5524529 47.0828794,53.5522004 45.4163092,52.4568175 L34.9664057,45.5884323 L42.2421521,40.5117126 L48.1618633,44.3749751 L74.3447037,27.1708049 L48.1618633,9.97219542 L21.9754522,27.1708049 L30.238273,32.5983492 L22.7459286,37.5639905 L13.2610955,31.3827757 C10.9475905,29.8750769 10.2943555,26.7773791 11.8020543,24.4638741 C12.1783469,23.8864678 12.6699471,23.3930896 13.2459913,23.0147151 L45.4166558,1.88341722 C47.0831027,0.788811775 49.2405829,0.788874223 50.9069664,1.88357614 Z" id="Combined-Shape" fill="#22E6AA"></path>
            </g>
        </g>
    </g>
</svg>