<?xml version="1.0" encoding="utf-8"?>
<!-- Generator: Adobe Illustrator 15.0.0, SVG Export Plug-In . SVG Version: 6.00 Build 0)  -->
<!DOCTYPE svg PUBLIC "-//W3C//DTD SVG 1.0//EN" "http://www.w3.org/TR/2001/REC-SVG-20010904/DTD/svg10.dtd" [
	<!ENTITY ns_flows "http://ns.adobe.com/Flows/1.0/">
	<!ENTITY ns_extend "http://ns.adobe.com/Extensibility/1.0/">
	<!ENTITY ns_ai "http://ns.adobe.com/AdobeIllustrator/10.0/">
	<!ENTITY ns_graphs "http://ns.adobe.com/Graphs/1.0/">
]>
<svg version="1.0" id="Layer_1" xmlns:x="&ns_extend;" xmlns:i="&ns_ai;" xmlns:graph="&ns_graphs;"
	 xmlns="http://www.w3.org/2000/svg" xmlns:xlink="http://www.w3.org/1999/xlink" xmlns:a="http://ns.adobe.com/AdobeSVGViewerExtensions/3.0/"
	 x="0px" y="0px" width="1500px" height="600px" viewBox="0 0 1500 600" enable-background="new 0 0 1500 600" xml:space="preserve"
	>
<g>
	<path fill="#777777" d="M718.788,418.581v-44.354c6.175-0.455,10.698-0.683,13.569-0.683c4.785,0,8.499,0.487,11.143,1.462
		c4.762,1.753,7.143,4.925,7.143,9.514c0,2.749-0.803,5.038-2.409,6.867c-1.606,1.83-3.606,3.091-5.999,3.783
		c1.322,0.238,2.529,0.596,3.623,1.071c1.094,0.477,2.148,1.12,3.162,1.932c1.014,0.813,1.806,1.899,2.375,3.264
		c0.57,1.364,0.855,2.934,0.855,4.708c0,4.373-1.732,7.658-5.195,9.855c-3.465,2.197-8.568,3.295-15.313,3.295
		C729.372,419.295,725.054,419.057,718.788,418.581z M728.802,392.572h2.803c3.122,0,5.383-0.547,6.785-1.64
		s2.103-2.723,2.103-4.888c0-2.229-0.695-3.848-2.086-4.854c-1.39-1.007-3.68-1.51-6.87-1.51h-2.734V392.572z M728.802,413.126
		h2.563c3.714,0,6.409-0.628,8.083-1.884c1.675-1.255,2.512-3.16,2.512-5.715c0-2.424-0.785-4.134-2.357-5.13
		c-1.572-0.995-4.239-1.493-7.999-1.493h-2.803V413.126z"/>
	<path fill="#777777" d="M794.584,419.36c-3.531,0-6.67-0.568-9.416-1.705c-2.746-1.136-4.979-2.722-6.699-4.757
		c-1.721-2.034-3.025-4.421-3.914-7.159s-1.332-5.753-1.332-9.044c0-4.653,0.809-8.718,2.426-12.192
		c1.618-3.475,4.079-6.202,7.383-8.183c3.305-1.98,7.292-2.971,11.963-2.971c3.441,0,6.5,0.552,9.178,1.656
		c2.678,1.104,4.871,2.673,6.58,4.708s3.002,4.443,3.879,7.225s1.316,5.883,1.316,9.303c0,4.633-0.787,8.665-2.359,12.096
		s-3.977,6.126-7.211,8.085C803.141,418.381,799.21,419.36,794.584,419.36z M794.584,412.055c3.418,0,6.056-1.358,7.913-4.075
		c1.856-2.717,2.786-6.608,2.786-11.673c0-2.252-0.194-4.297-0.582-6.138c-0.387-1.84-0.979-3.49-1.777-4.951
		c-0.797-1.462-1.891-2.598-3.281-3.41c-1.39-0.812-3.03-1.218-4.922-1.218c-3.577,0-6.277,1.419-8.1,4.254
		c-1.824,2.836-2.734,6.7-2.734,11.592c0,3.117,0.375,5.829,1.127,8.135c0.752,2.305,1.943,4.129,3.572,5.471
		C790.215,411.384,792.215,412.055,794.584,412.055z"/>
	<path fill="#777777" d="M876.123,418.841h-10.082l-3.076-9.839h-15.586l-3.043,9.839h-10.219l15.209-44.939h11.484L876.123,418.841
		z M860.742,401.696l-1.846-5.877l-3.76-16.95l-3.725,16.95l-1.813,5.877H860.742z"/>
	<path fill="#777777" d="M931.207,418.841h-11.689l-10.287-20.294l-2.803-0.39v20.684h-10.016v-44.614
		c4.968-0.455,9.753-0.683,14.355-0.683c4.968,0,8.773,0.563,11.416,1.688c4.193,1.905,6.289,5.38,6.289,10.424
		c0,3.117-0.797,5.726-2.393,7.825c-1.595,2.1-3.646,3.615-6.152,4.546L931.207,418.841z M906.428,394.715h2.357
		c3.373,0,5.76-0.611,7.161-1.834s2.103-3.123,2.103-5.699c0-2.598-0.65-4.476-1.949-5.634c-1.299-1.157-3.52-1.737-6.664-1.737
		h-3.008V394.715z"/>
	<path fill="#777777" d="M951.496,418.451v-44.16c6.039-0.498,10.563-0.747,13.57-0.747c5.65,0,10.174,0.715,13.568,2.144
		c7.246,3.096,10.869,9.903,10.869,20.424c0,7.814-1.953,13.601-5.861,17.355c-3.908,3.756-10.191,5.634-18.85,5.634
		C960.486,419.101,956.054,418.884,951.496,418.451z M961.648,411.795h2.803c2.482,0,4.597-0.249,6.34-0.747s3.252-1.331,4.529-2.5
		c1.275-1.169,2.221-2.776,2.836-4.822s0.924-4.583,0.924-7.614c0-5.368-1.077-9.275-3.23-11.722s-5.68-3.669-10.578-3.669h-3.623
		V411.795z"/>
	<path fill="#777777" d="M1047.391,418.841h-11.689l-10.287-20.294l-2.803-0.39v20.684h-10.016v-44.614
		c4.968-0.455,9.753-0.683,14.355-0.683c4.968,0,8.773,0.563,11.416,1.688c4.193,1.905,6.289,5.38,6.289,10.424
		c0,3.117-0.797,5.726-2.393,7.825c-1.595,2.1-3.646,3.615-6.152,4.546L1047.391,418.841z M1022.611,394.715h2.357
		c3.373,0,5.76-0.611,7.161-1.834s2.103-3.123,2.103-5.699c0-2.598-0.65-4.476-1.949-5.634c-1.299-1.157-3.52-1.737-6.664-1.737
		h-3.008V394.715z"/>
	<path fill="#777777" d="M1086.924,419.36c-3.533,0-6.672-0.568-9.416-1.705c-2.748-1.136-4.98-2.722-6.699-4.757
		c-1.723-2.034-3.025-4.421-3.914-7.159s-1.334-5.753-1.334-9.044c0-4.653,0.809-8.718,2.428-12.192
		c1.617-3.475,4.078-6.202,7.383-8.183c3.303-1.98,7.291-2.971,11.963-2.971c3.439,0,6.498,0.552,9.178,1.656
		c2.676,1.104,4.869,2.673,6.578,4.708s3.002,4.443,3.881,7.225c0.875,2.781,1.314,5.883,1.314,9.303
		c0,4.633-0.785,8.665-2.357,12.096s-3.977,6.126-7.213,8.085S1091.549,419.36,1086.924,419.36z M1086.924,412.055
		c3.418,0,6.055-1.358,7.912-4.075s2.785-6.608,2.785-11.673c0-2.252-0.193-4.297-0.58-6.138c-0.389-1.84-0.98-3.49-1.777-4.951
		c-0.799-1.462-1.893-2.598-3.281-3.41c-1.391-0.812-3.031-1.218-4.922-1.218c-3.578,0-6.279,1.419-8.102,4.254
		c-1.822,2.836-2.734,6.7-2.734,11.592c0,3.117,0.377,5.829,1.129,8.135c0.752,2.305,1.941,4.129,3.572,5.471
		C1082.553,411.384,1084.553,412.055,1086.924,412.055z"/>
	<path fill="#777777" d="M1150.621,419.36c-3.533,0-6.672-0.568-9.416-1.705c-2.748-1.136-4.98-2.722-6.699-4.757
		c-1.723-2.034-3.025-4.421-3.914-7.159s-1.334-5.753-1.334-9.044c0-4.653,0.809-8.718,2.428-12.192
		c1.617-3.475,4.078-6.202,7.383-8.183c3.303-1.98,7.291-2.971,11.963-2.971c3.439,0,6.498,0.552,9.178,1.656
		c2.676,1.104,4.869,2.673,6.578,4.708s3.002,4.443,3.881,7.225c0.875,2.781,1.314,5.883,1.314,9.303
		c0,4.633-0.785,8.665-2.357,12.096s-3.977,6.126-7.213,8.085S1155.246,419.36,1150.621,419.36z M1150.621,412.055
		c3.418,0,6.055-1.358,7.912-4.075s2.785-6.608,2.785-11.673c0-2.252-0.193-4.297-0.58-6.138c-0.389-1.84-0.98-3.49-1.777-4.951
		c-0.799-1.462-1.893-2.598-3.281-3.41c-1.391-0.812-3.031-1.218-4.922-1.218c-3.578,0-6.279,1.419-8.102,4.254
		c-1.822,2.836-2.734,6.7-2.734,11.592c0,3.117,0.377,5.829,1.129,8.135c0.752,2.305,1.941,4.129,3.572,5.471
		C1146.25,411.384,1148.25,412.055,1150.621,412.055z"/>
	<path fill="#777777" d="M1243.986,418.841h-9.365l-1.266-25.197v-15.78l-2.871,15.033l-7.074,23.541h-8.682l-6.973-23.541
		l-2.871-14.677v15.684l-1.266,24.938h-9.262l2.598-44.939h12.953l7.418,24.872l1.811,8.963l1.846-8.963l7.418-24.872h13.021
		L1243.986,418.841z"/>
</g>
<g>
	<g>
		<path fill="none" stroke="#00AEEF" stroke-width="10" stroke-miterlimit="10" d="M137.764,423.93
			c-65.812-67.212-76.591-173.814-20.677-253.669c55.915-79.854,159.774-106.184,245.441-67.331"/>
		
			<line fill="none" stroke="#00AEEF" stroke-width="10" stroke-miterlimit="10" x1="134.489" y1="422.841" x2="360.387" y2="100.226"/>
	</g>
	<g>
		<path fill="none" stroke="#00AEEF" stroke-width="10" stroke-miterlimit="10" d="M424.141,146.072
			c65.812,67.211,76.592,173.814,20.677,253.668c-55.915,79.854-159.775,106.183-245.442,67.33"/>
		
			<line fill="none" stroke="#00AEEF" stroke-width="10" stroke-miterlimit="10" x1="427.416" y1="147.159" x2="201.518" y2="469.774"/>
	</g>
</g>
<line fill="none" stroke="#27AAE1" stroke-width="7" stroke-miterlimit="10" x1="509.852" y1="78.101" x2="509.852" y2="489.08"/>
<g>
	<g>
		<path fill="#27AAE1" d="M547.273,319.873c-2.608,0-4.818-0.85-6.63-2.55c-1.814-1.7-2.72-3.852-2.72-6.46v-100.98
			c0-2.491,0.821-4.616,2.465-6.375c1.642-1.755,3.767-2.635,6.375-2.635h25.5c4.646,0,9.01,0.85,13.09,2.55
			c4.08,1.7,7.65,4.054,10.71,7.055c3.06,3.004,5.466,6.519,7.225,10.54c1.755,4.024,2.635,8.359,2.635,13.005
			c0,3.06-0.454,5.809-1.36,8.245c-0.909,2.438-2.014,4.59-3.315,6.46c-1.304,1.87-2.665,3.4-4.08,4.59
			c-1.418,1.19-2.693,2.125-3.825,2.805v1.7c2.606,0.908,5.185,2.183,7.735,3.825c2.55,1.645,4.816,3.628,6.8,5.95
			c1.981,2.324,3.57,5.015,4.76,8.075c1.19,3.06,1.785,6.349,1.785,9.86c0,4.988-0.935,9.578-2.805,13.77
			c-1.87,4.194-4.364,7.82-7.48,10.881c-3.118,3.06-6.773,5.439-10.965,7.14c-4.194,1.7-8.614,2.55-13.26,2.55H547.273z
			 M570.903,251.023c4.986,0,9.095-1.615,12.325-4.845s4.845-7.281,4.845-12.155c0-4.986-1.418-8.925-4.25-11.815
			c-2.834-2.89-6.404-4.335-10.71-4.335h-17.34v33.15H570.903z M580.763,302.873c4.306,0,8.017-1.557,11.135-4.675
			c3.116-3.116,4.675-7.337,4.675-12.665c0-5.212-1.87-9.435-5.61-12.665c-3.74-3.23-8.444-4.845-14.11-4.845h-21.08v34.85H580.763z
			"/>
		<path fill="#27AAE1" d="M636.861,321.573c-2.494,0-4.59-0.88-6.29-2.636s-2.55-3.881-2.55-6.375V208.183
			c0-2.492,0.85-4.617,2.55-6.375c1.7-1.756,3.796-2.635,6.29-2.635c2.491,0,4.616,0.879,6.375,2.635
			c1.756,1.758,2.635,3.883,2.635,6.375v104.379c0,2.494-0.879,4.619-2.635,6.375C641.477,320.693,639.352,321.573,636.861,321.573z
			"/>
		<path fill="#27AAE1" d="M706.22,321.573c-9.181,0-17.256-2.296-24.226-6.886s-12.155-10.736-15.555-18.444
			c-1.249-2.831-2.154-6.006-2.72-9.521c-0.568-3.512-0.851-7.195-0.851-11.05v-30.6c0-3.852,0.282-7.536,0.851-11.05
			c0.565-3.511,1.471-6.686,2.72-9.52c3.399-7.706,8.556-13.855,15.47-18.445c6.912-4.59,15.016-6.885,24.311-6.885
			c9.18,0,17.255,2.295,24.225,6.885c6.969,4.59,12.155,10.739,15.555,18.445c1.246,2.834,2.152,6.009,2.721,9.52
			c0.564,3.514,0.85,7.199,0.85,11.05v30.6c0,3.854-0.285,7.538-0.85,11.05c-0.568,3.515-1.475,6.689-2.721,9.521
			c-3.4,7.708-8.559,13.854-15.47,18.444C723.616,319.277,715.511,321.573,706.22,321.573z M706.22,304.573
			c5.439,0,10.17-1.331,14.194-3.995c4.021-2.662,6.941-5.807,8.755-9.436c0.906-1.926,1.557-4.164,1.955-6.715
			c0.396-2.55,0.596-5.185,0.596-7.905v-32.3c0-2.72-0.199-5.355-0.596-7.905c-0.398-2.55-1.049-4.787-1.955-6.715
			c-1.813-3.626-4.733-6.771-8.755-9.435c-4.024-2.662-8.755-3.995-14.194-3.995c-5.44,0-10.174,1.333-14.195,3.995
			c-4.024,2.664-6.943,5.809-8.755,9.435c-0.908,1.928-1.56,4.165-1.955,6.715c-0.398,2.55-0.595,5.185-0.595,7.905v32.3
			c0,2.72,0.196,5.355,0.595,7.905c0.396,2.551,1.047,4.789,1.955,6.715c1.812,3.629,4.73,6.773,8.755,9.436
			C696.046,303.242,700.78,304.573,706.22,304.573z"/>
		<path fill="#27AAE1" d="M773.709,321.573c-2.494,0-4.59-0.88-6.291-2.636c-1.699-1.756-2.549-3.881-2.549-6.375v-102.68
			c0-2.491,0.82-4.616,2.465-6.375c1.641-1.755,3.766-2.635,6.375-2.635h28.9c5.1,0,9.971,0.879,14.619,2.635
			c4.646,1.759,8.756,4.25,12.324,7.48c3.57,3.23,6.432,7.14,8.586,11.73c2.152,4.59,3.23,9.663,3.23,15.215
			c0,5.668-1.078,10.769-3.23,15.3c-2.154,4.534-5.016,8.415-8.586,11.645c-3.568,3.23-7.678,5.695-12.324,7.395
			c-4.648,1.7-9.52,2.55-14.619,2.55h-19.891v37.739c0,2.494-0.879,4.619-2.635,6.375
			C778.326,320.693,776.201,321.573,773.709,321.573z M804.309,257.823c5.326,0,9.859-1.7,13.6-5.1s5.611-8.33,5.611-14.79
			c0-6.346-1.871-11.276-5.611-14.79c-3.74-3.512-8.273-5.27-13.6-5.27h-21.59v39.95H804.309z"/>
		<path fill="#27AAE1" d="M837.969,353.873c-3.627,0-6.375-0.994-8.246-2.975c-1.869-1.984-2.805-4.279-2.805-6.885
			c0-2.609,0.879-4.846,2.635-6.716c1.758-1.87,4.109-2.805,7.055-2.805c5.668,0,9.576-1.759,11.73-5.271
			c2.152-3.514,3.23-8.048,3.23-13.6v-107.44c0-2.492,0.877-4.617,2.635-6.375c1.756-1.756,3.881-2.635,6.375-2.635
			c2.492,0,4.59,0.879,6.289,2.635c1.701,1.758,2.551,3.883,2.551,6.375v42.84h51v-43.69c0-4.532,0.566-8.925,1.699-13.175
			s2.918-8.046,5.355-11.39c2.436-3.342,5.666-6.035,9.689-8.075c4.021-2.04,8.926-3.06,14.705-3.06
			c3.627,0,6.375,0.994,8.246,2.975c1.869,1.984,2.805,4.279,2.805,6.885c0,2.608-0.879,4.845-2.635,6.715
			c-1.758,1.87-4.109,2.805-7.055,2.805c-5.67,0-9.578,1.758-11.73,5.27c-2.154,3.514-3.23,8.048-3.23,13.6v102.68
			c0,2.494-0.85,4.619-2.549,6.375c-1.701,1.756-3.799,2.636-6.291,2.636c-2.494,0-4.619-0.88-6.375-2.636
			c-1.758-1.756-2.635-3.881-2.635-6.375v-44.54h-51v50.15c0,4.532-0.568,8.925-1.699,13.175c-1.135,4.25-2.92,8.047-5.355,11.391
			c-2.439,3.342-5.668,6.035-9.689,8.074C848.648,352.854,843.748,353.873,837.969,353.873z"/>
		<path fill="#27AAE1" d="M1055.564,353.873c-5.779,0-10.684-1.02-14.705-3.061c-4.023-2.039-7.254-4.732-9.689-8.074
			c-2.438-3.344-4.223-7.141-5.355-11.391s-1.699-8.643-1.699-13.175v-34h-51v28.39c0,2.494-0.879,4.619-2.635,6.375
			c-1.758,1.756-3.883,2.636-6.375,2.636c-2.494,0-4.59-0.88-6.291-2.636c-1.699-1.756-2.549-3.881-2.549-6.375v-67.489
			c0-3.852,0.281-7.536,0.85-11.05c0.566-3.511,1.471-6.686,2.721-9.52c3.398-7.706,8.555-13.855,15.469-18.445
			c6.912-4.59,15.016-6.885,24.311-6.885c9.18,0,17.256,2.295,24.225,6.885c6.971,4.59,12.156,10.739,15.555,18.445
			c1.246,2.834,2.152,6.009,2.721,9.52c0.566,3.514,0.85,7.199,0.85,11.05v70.55c0,5.552,1.076,10.086,3.23,13.6
			c2.152,3.512,6.061,5.271,11.73,5.271c2.945,0,5.297,0.935,7.055,2.805c1.756,1.87,2.635,4.106,2.635,6.716
			c0,2.605-0.936,4.9-2.805,6.885C1061.939,352.879,1059.191,353.873,1055.564,353.873z M1024.115,267.173v-22.95
			c0-2.72-0.199-5.355-0.596-7.905c-0.398-2.55-1.049-4.787-1.955-6.715c-1.814-3.626-4.732-6.771-8.754-9.435
			c-4.025-2.662-8.756-3.995-14.195-3.995s-10.174,1.333-14.195,3.995c-4.023,2.664-6.943,5.809-8.754,9.435
			c-0.91,1.928-1.561,4.165-1.955,6.715c-0.398,2.55-0.596,5.185-0.596,7.905v22.95H1024.115z"/>
		<path fill="#27AAE1" d="M1143.963,353.873c-5.781,0-10.684-1.02-14.705-3.061c-4.025-2.039-7.254-4.732-9.689-8.074
			c-2.439-3.344-4.225-7.141-5.355-11.391c-1.135-4.25-1.701-8.643-1.701-13.175v-32.64c0-2.381-0.34-4.617-1.02-6.715
			c-0.68-2.096-1.729-3.937-3.145-5.525c-1.418-1.586-3.289-2.861-5.609-3.825c-2.324-0.962-5.131-1.445-8.416-1.445h-17.51v44.54
			c0,2.494-0.879,4.619-2.635,6.375c-1.758,1.756-3.883,2.636-6.375,2.636c-2.494,0-4.59-0.88-6.291-2.636
			c-1.699-1.756-2.549-3.881-2.549-6.375v-102.68c0-2.491,0.82-4.616,2.465-6.375c1.641-1.755,3.766-2.635,6.375-2.635h30.6
			c4.646,0,9.01,0.85,13.09,2.55c4.08,1.7,7.65,4.024,10.711,6.97c3.059,2.948,5.467,6.375,7.225,10.285
			c1.756,3.91,2.635,8.075,2.635,12.495c0,3.289-0.455,6.349-1.359,9.18c-0.908,2.834-2.184,5.414-3.826,7.735
			c-1.645,2.324-3.543,4.279-5.695,5.865c-2.154,1.588-4.42,2.778-6.799,3.57v1.7c5.326,1.7,9.32,4.648,11.984,8.84
			c2.662,4.194,3.996,9.35,3.996,15.47v30.09c0,5.552,1.074,10.086,3.229,13.6c2.152,3.512,6.063,5.271,11.73,5.271
			c2.945,0,5.297,0.935,7.055,2.805c1.756,1.87,2.635,4.106,2.635,6.716c0,2.605-0.934,4.9-2.805,6.885
			C1150.338,352.879,1147.588,353.873,1143.963,353.873z M1097.043,251.023c4.984,0,9.094-1.615,12.324-4.845
			s4.846-7.281,4.846-12.155c0-4.986-1.418-8.925-4.25-11.815c-2.834-2.89-6.404-4.335-10.711-4.335h-22.439v33.15H1097.043z"/>
		<path fill="#27AAE1" d="M1318.383,353.873c-5.779,0-10.684-1.02-14.705-3.061c-4.023-2.039-7.254-4.732-9.689-8.074
			c-2.439-3.344-4.225-7.141-5.355-11.391c-1.135-4.25-1.699-8.643-1.699-13.175v-73.95c0-2.72-0.199-5.355-0.596-7.905
			c-0.398-2.55-1.049-4.787-1.955-6.715c-1.814-3.626-4.732-6.771-8.754-9.435c-4.025-2.662-8.756-3.995-14.195-3.995
			c-5.441,0-10.174,1.333-14.195,3.995c-4.025,2.664-6.943,5.809-8.756,9.435c-0.908,1.928-1.559,4.165-1.955,6.715
			c-0.398,2.55-0.594,5.185-0.594,7.905v68.339c0,2.494-0.879,4.619-2.635,6.375c-1.76,1.756-3.885,2.636-6.375,2.636
			c-2.494,0-4.592-0.88-6.291-2.636s-2.551-3.881-2.551-6.375l-0.17-68.339c0-2.72-0.199-5.355-0.594-7.905
			c-0.398-2.55-1.049-4.787-1.955-6.715c-1.814-3.626-4.734-6.771-8.756-9.435c-4.023-2.662-8.754-3.995-14.195-3.995
			c-5.439,0-10.172,1.333-14.193,3.995c-4.025,2.664-6.943,5.809-8.756,9.435c-0.908,1.928-1.559,4.165-1.955,6.715
			c-0.398,2.55-0.596,5.185-0.596,7.905v68.339c0,2.494-0.879,4.619-2.635,6.375c-1.758,1.756-3.883,2.636-6.375,2.636
			c-2.494,0-4.59-0.88-6.289-2.636c-1.701-1.756-2.551-3.881-2.551-6.375v-67.489c0-3.852,0.281-7.536,0.85-11.05
			c0.566-3.511,1.473-6.686,2.721-9.52c3.4-7.706,8.557-13.855,15.471-18.445c6.91-4.59,15.016-6.885,24.309-6.885
			c3.967,0,7.707,0.51,11.221,1.53c3.512,1.02,6.715,2.38,9.605,4.08c2.891,1.7,5.41,3.655,7.564,5.865
			c2.152,2.21,3.91,4.449,5.27,6.715h1.701c1.359-2.266,3.115-4.505,5.27-6.715c2.152-2.21,4.676-4.165,7.564-5.865
			c2.891-1.7,6.092-3.06,9.605-4.08c3.512-1.02,7.252-1.53,11.221-1.53c9.18,0,17.254,2.295,24.225,6.885
			s12.154,10.739,15.555,18.445c1.246,2.834,2.152,6.009,2.721,9.52c0.564,3.514,0.85,7.199,0.85,11.05v70.55
			c0,5.552,1.076,10.086,3.23,13.6c2.15,3.512,6.061,5.271,11.729,5.271c2.947,0,5.297,0.935,7.057,2.805
			c1.756,1.87,2.635,4.106,2.635,6.716c0,2.605-0.936,4.9-2.805,6.885C1324.758,352.879,1322.008,353.873,1318.383,353.873z"/>
		<path fill="#27AAE1" d="M1422.08,353.873c-5.779,0-10.684-1.02-14.705-3.061c-4.023-2.039-7.254-4.732-9.689-8.074
			c-2.438-3.344-4.223-7.141-5.355-11.391s-1.699-8.643-1.699-13.175v-34h-51v28.39c0,2.494-0.879,4.619-2.635,6.375
			c-1.758,1.756-3.883,2.636-6.375,2.636c-2.494,0-4.59-0.88-6.291-2.636c-1.699-1.756-2.549-3.881-2.549-6.375v-67.489
			c0-3.852,0.281-7.536,0.85-11.05c0.566-3.511,1.471-6.686,2.721-9.52c3.398-7.706,8.555-13.855,15.469-18.445
			c6.912-4.59,15.016-6.885,24.311-6.885c9.18,0,17.256,2.295,24.225,6.885c6.971,4.59,12.156,10.739,15.555,18.445
			c1.246,2.834,2.152,6.009,2.721,9.52c0.566,3.514,0.85,7.199,0.85,11.05v70.55c0,5.552,1.076,10.086,3.23,13.6
			c2.152,3.512,6.061,5.271,11.73,5.271c2.945,0,5.297,0.935,7.055,2.805c1.756,1.87,2.635,4.106,2.635,6.716
			c0,2.605-0.936,4.9-2.805,6.885C1428.455,352.879,1425.707,353.873,1422.08,353.873z M1390.631,267.173v-22.95
			c0-2.72-0.199-5.355-0.596-7.905c-0.398-2.55-1.049-4.787-1.955-6.715c-1.814-3.626-4.732-6.771-8.754-9.435
			c-4.025-2.662-8.756-3.995-14.195-3.995s-10.174,1.333-14.195,3.995c-4.023,2.664-6.943,5.809-8.754,9.435
			c-0.91,1.928-1.561,4.165-1.955,6.715c-0.398,2.55-0.596,5.185-0.596,7.905v22.95H1390.631z"/>
	</g>
	<g>
		<g>
			<path fill="#27AAE1" d="M725.405,150.939c-0.288,10.33-8.156,18.308-18.516,18.597c-10.329,0.289-18.32-8.588-18.597-18.516
				c-0.289-10.329,8.588-18.32,18.516-18.597C717.136,132.135,725.128,141.012,725.405,150.939
				c0.203,7.248,11.455,7.332,11.252,0.081c-0.461-16.536-13.204-29.387-29.768-29.85c-16.531-0.461-29.407,13.896-29.85,29.769
				c-0.461,16.531,13.896,29.407,29.769,29.85c16.531,0.461,29.407-13.896,29.849-29.769
				C736.86,143.75,725.607,143.705,725.405,150.939z"/>
		</g>
	</g>
	<g>
		<g>
			<path fill="#27AAE1" d="M655.672,149.394c-0.288,10.329-8.156,18.308-18.516,18.597c-10.328,0.289-18.32-8.588-18.597-18.516
				c-0.202-7.248-11.455-7.332-11.253-0.081c0.461,16.536,13.204,29.387,29.769,29.85c16.531,0.461,29.407-13.896,29.85-29.769
				C667.127,142.205,655.874,142.16,655.672,149.394L655.672,149.394z"/>
		</g>
	</g>
</g>
<line fill="none" stroke="#27AAE1" stroke-width="5" stroke-miterlimit="10" x1="1424.807" y1="348.089" x2="537.25" y2="348.089"/>
<g>
	<path fill="#7C7C7C" d="M972.373,170.504h-6.144v-3.296h16.287v3.296h-6.208v18.271h-3.936V170.504z"/>
	<path fill="#7C7C7C" d="M984.565,166.056h3.936v9.248h0.063c0.48-0.736,1.152-1.344,1.953-1.76
		c0.799-0.448,1.728-0.704,2.719-0.704c2.656,0,5.439,1.76,5.439,6.751v9.184h-3.936v-8.768c0-2.239-0.832-3.968-3.008-3.968
		c-1.535,0-2.623,1.024-3.071,2.208c-0.128,0.353-0.16,0.768-0.16,1.184v9.344h-3.936V166.056z"/>
	<path fill="#7C7C7C" d="M1005.652,182.087c0.097,2.815,2.272,4.031,4.801,4.031c1.823,0,3.104-0.287,4.319-0.703l0.575,2.688
		c-1.344,0.576-3.199,0.992-5.439,0.992c-5.055,0-8.031-3.104-8.031-7.872c0-4.319,2.624-8.383,7.615-8.383
		c5.057,0,6.721,4.159,6.721,7.583c0,0.736-0.064,1.313-0.129,1.664H1005.652z M1012.5,179.335c0.032-1.439-0.607-3.808-3.231-3.808
		c-2.432,0-3.456,2.208-3.616,3.808H1012.5z"/>
	<path fill="#7C7C7C" d="M1030.068,167.208v12.575c0,4.224,1.76,6.176,4.416,6.176c2.848,0,4.543-1.952,4.543-6.176v-12.575h3.936
		v12.319c0,6.655-3.424,9.599-8.607,9.599c-4.991,0-8.223-2.783-8.223-9.567v-12.351H1030.068z"/>
	<path fill="#7C7C7C" d="M1047.316,177.831c0-1.792-0.064-3.296-0.129-4.64h3.424l0.192,2.336h0.097
		c0.703-1.216,2.398-2.688,4.99-2.688c2.721,0,5.536,1.76,5.536,6.688v9.247h-3.936v-8.8c0-2.239-0.832-3.936-2.976-3.936
		c-1.568,0-2.656,1.12-3.072,2.304c-0.128,0.32-0.191,0.801-0.191,1.248v9.184h-3.936V177.831z"/>
	<path fill="#7C7C7C" d="M1069.812,168.84c0,1.152-0.864,2.112-2.24,2.112c-1.312,0-2.176-0.96-2.176-2.112
		c0-1.216,0.896-2.144,2.208-2.144C1068.947,166.696,1069.779,167.624,1069.812,168.84z M1065.619,188.774v-15.583h3.936v15.583
		H1065.619z"/>
	<path fill="#7C7C7C" d="M1076.308,173.191l2.527,7.903c0.448,1.376,0.769,2.624,1.056,3.904h0.097
		c0.288-1.28,0.64-2.496,1.056-3.904l2.496-7.903h4.127l-5.951,15.583h-3.871l-5.792-15.583H1076.308z"/>
	<path fill="#7C7C7C" d="M1092.436,182.087c0.096,2.815,2.271,4.031,4.8,4.031c1.823,0,3.104-0.287,4.319-0.703l0.576,2.688
		c-1.344,0.576-3.199,0.992-5.439,0.992c-5.056,0-8.031-3.104-8.031-7.872c0-4.319,2.623-8.383,7.615-8.383
		c5.056,0,6.72,4.159,6.72,7.583c0,0.736-0.063,1.313-0.128,1.664H1092.436z M1099.283,179.335c0.032-1.439-0.607-3.808-3.232-3.808
		c-2.432,0-3.455,2.208-3.615,3.808H1099.283z"/>
	<path fill="#7C7C7C" d="M1106.164,178.215c0-2.111-0.032-3.647-0.129-5.023h3.393l0.16,2.944h0.096
		c0.768-2.176,2.592-3.296,4.287-3.296c0.385,0,0.608,0.031,0.928,0.096v3.68c-0.352-0.063-0.703-0.096-1.184-0.096
		c-1.855,0-3.168,1.184-3.52,2.976c-0.064,0.352-0.096,0.768-0.096,1.184v8.096h-3.936V178.215z"/>
	<path fill="#7C7C7C" d="M1117.395,185.127c0.865,0.544,2.561,1.151,3.969,1.151c1.728,0,2.496-0.735,2.496-1.76
		c0-1.056-0.641-1.567-2.561-2.271c-3.039-1.024-4.287-2.688-4.287-4.544c0-2.752,2.271-4.863,5.887-4.863
		c1.729,0,3.232,0.416,4.16,0.928l-0.8,2.752c-0.64-0.384-1.92-0.896-3.296-0.896c-1.408,0-2.176,0.704-2.176,1.664
		c0,0.992,0.736,1.44,2.72,2.176c2.848,0.992,4.128,2.432,4.159,4.736c0,2.848-2.207,4.896-6.335,4.896
		c-1.888,0-3.584-0.448-4.735-1.088L1117.395,185.127z"/>
	<path fill="#7C7C7C" d="M1133.683,182.087c0.097,2.815,2.272,4.031,4.8,4.031c1.824,0,3.104-0.287,4.32-0.703l0.575,2.688
		c-1.344,0.576-3.2,0.992-5.439,0.992c-5.056,0-8.031-3.104-8.031-7.872c0-4.319,2.624-8.383,7.615-8.383
		c5.056,0,6.72,4.159,6.72,7.583c0,0.736-0.064,1.313-0.129,1.664H1133.683z M1140.53,179.335c0.032-1.439-0.608-3.808-3.231-3.808
		c-2.432,0-3.456,2.208-3.616,3.808H1140.53z"/>
	<path fill="#7C7C7C" d="M1168.85,180.839c0,5.728-4.032,8.287-8,8.287c-4.384,0-7.807-3.008-7.807-8.031
		c0-5.119,3.359-8.255,8.063-8.255C1165.745,172.84,1168.85,176.104,1168.85,180.839z M1157.105,180.999
		c0,3.008,1.504,5.279,3.872,5.279c2.24,0,3.808-2.176,3.808-5.344c0-2.432-1.088-5.247-3.775-5.247
		C1158.227,175.688,1157.105,178.407,1157.105,180.999z"/>
	<path fill="#7C7C7C" d="M1172.53,188.774v-12.639h-2.112v-2.944h2.112v-0.672c0-2.016,0.544-4.031,1.888-5.312
		c1.152-1.088,2.688-1.504,4.063-1.504c1.056,0,1.888,0.192,2.496,0.384l-0.256,3.04c-0.448-0.16-0.96-0.288-1.696-0.288
		c-1.951,0-2.592,1.632-2.592,3.552v0.8h3.393v2.944h-3.36v12.639H1172.53z"/>
	<path fill="#7C7C7C" d="M1189.073,167.528c1.247-0.257,3.52-0.48,5.759-0.48c2.881,0,4.704,0.384,6.145,1.376
		c1.344,0.8,2.24,2.208,2.24,4.063c0,1.984-1.248,3.776-3.584,4.64v0.097c2.271,0.575,4.352,2.367,4.352,5.312
		c0,1.92-0.832,3.424-2.049,4.479c-1.535,1.312-4.063,1.983-8.031,1.983c-2.176,0-3.807-0.159-4.831-0.288V167.528z
		 M1192.977,176.039h2.016c2.752,0,4.256-1.279,4.256-3.104c0-2.048-1.535-2.976-4.031-2.976c-1.152,0-1.824,0.063-2.24,0.16
		V176.039z M1192.977,185.927c0.512,0.096,1.184,0.096,2.08,0.096c2.527,0,4.8-0.928,4.8-3.584c0-2.527-2.208-3.552-4.928-3.552
		h-1.952V185.927z"/>
	<path fill="#7C7C7C" d="M1211.537,168.84c0,1.152-0.865,2.112-2.24,2.112c-1.313,0-2.176-0.96-2.176-2.112
		c0-1.216,0.896-2.144,2.207-2.144C1210.672,166.696,1211.504,167.624,1211.537,168.84z M1207.345,188.774v-15.583h3.936v15.583
		H1207.345z"/>
	<path fill="#7C7C7C" d="M1230.352,180.839c0,5.728-4.031,8.287-8,8.287c-4.383,0-7.807-3.008-7.807-8.031
		c0-5.119,3.359-8.255,8.063-8.255C1227.248,172.84,1230.352,176.104,1230.352,180.839z M1218.608,180.999
		c0,3.008,1.504,5.279,3.872,5.279c2.24,0,3.808-2.176,3.808-5.344c0-2.432-1.088-5.247-3.776-5.247
		C1219.729,175.688,1218.608,178.407,1218.608,180.999z"/>
	<path fill="#7C7C7C" d="M1253.967,188.774c-0.544-0.544-1.023-1.088-1.695-1.792c-1.6,1.376-3.616,2.144-6.08,2.144
		c-4.735,0-7.104-2.976-7.104-6.111c0-2.88,1.696-4.928,4.16-6.239v-0.096c-1.023-1.217-1.729-2.784-1.729-4.32
		c0-2.688,2.049-5.535,6.016-5.535c3.04,0,5.376,1.888,5.376,4.831c0,2.24-1.312,4.064-4.448,5.664l-0.031,0.096
		c1.504,1.729,3.168,3.647,4.352,4.928c0.928-1.408,1.6-3.456,1.951-5.728h3.521c-0.576,3.328-1.567,6.08-3.36,8.096
		c1.217,1.344,2.368,2.655,3.68,4.063H1253.967z M1250.416,184.743c-1.313-1.345-3.36-3.648-5.408-5.984
		c-0.992,0.704-2.176,1.824-2.176,3.648c0,2.111,1.568,3.808,3.968,3.808C1248.336,186.215,1249.584,185.574,1250.416,184.743z
		 M1245.072,171.976c0,1.312,0.607,2.368,1.567,3.456c1.823-1.152,2.88-2.145,2.88-3.648c0-1.151-0.672-2.432-2.176-2.432
		C1245.871,169.352,1245.072,170.6,1245.072,171.976z"/>
	<path fill="#7C7C7C" d="M1267.631,167.208h3.936v18.271h8.863v3.296h-12.799V167.208z"/>
	<path fill="#7C7C7C" d="M1287.439,168.84c0,1.152-0.865,2.112-2.24,2.112c-1.313,0-2.176-0.96-2.176-2.112
		c0-1.216,0.896-2.144,2.207-2.144C1286.574,166.696,1287.406,167.624,1287.439,168.84z M1283.247,188.774v-15.583h3.936v15.583
		H1283.247z"/>
	<path fill="#7C7C7C" d="M1291.887,188.774v-12.639h-2.111v-2.944h2.111v-0.672c0-2.016,0.545-4.031,1.889-5.312
		c1.151-1.088,2.688-1.504,4.063-1.504c1.057,0,1.889,0.192,2.496,0.384l-0.256,3.04c-0.447-0.16-0.959-0.288-1.695-0.288
		c-1.952,0-2.592,1.632-2.592,3.552v0.8h3.392v2.944h-3.36v12.639H1291.887z"/>
	<path fill="#7C7C7C" d="M1304.078,182.087c0.097,2.815,2.272,4.031,4.801,4.031c1.823,0,3.104-0.287,4.319-0.703l0.575,2.688
		c-1.344,0.576-3.199,0.992-5.439,0.992c-5.055,0-8.031-3.104-8.031-7.872c0-4.319,2.624-8.383,7.615-8.383
		c5.057,0,6.721,4.159,6.721,7.583c0,0.736-0.064,1.313-0.129,1.664H1304.078z M1310.926,179.335
		c0.032-1.439-0.607-3.808-3.231-3.808c-2.432,0-3.456,2.208-3.616,3.808H1310.926z"/>
	<path fill="#7C7C7C" d="M1317.902,184.486c1.248,0.736,3.2,1.376,5.216,1.376c2.496,0,3.903-1.184,3.903-2.943
		c0-1.632-1.088-2.592-3.807-3.584c-3.584-1.279-5.855-3.168-5.855-6.271c0-3.552,2.943-6.207,7.646-6.207
		c2.336,0,4.032,0.512,5.152,1.088l-0.928,3.167c-0.801-0.416-2.305-1.023-4.32-1.023c-2.496,0-3.552,1.312-3.552,2.592
		c0,1.664,1.248,2.432,4.128,3.552c3.744,1.408,5.535,3.296,5.535,6.399c0,3.487-2.623,6.495-8.159,6.495
		c-2.304,0-4.672-0.64-5.855-1.376L1317.902,184.486z"/>
	<path fill="#7C7C7C" d="M1346.062,188.295c-0.832,0.384-2.464,0.8-4.415,0.8c-4.864,0-8.031-3.136-8.031-7.968
		c0-4.672,3.199-8.287,8.671-8.287c1.439,0,2.911,0.319,3.808,0.704l-0.704,2.976c-0.64-0.32-1.567-0.608-2.976-0.608
		c-3.008,0-4.8,2.208-4.768,5.056c0,3.2,2.08,5.023,4.768,5.023c1.344,0,2.336-0.287,3.104-0.607L1346.062,188.295z"/>
	<path fill="#7C7C7C" d="M1353.166,168.84c0,1.152-0.864,2.112-2.24,2.112c-1.312,0-2.176-0.96-2.176-2.112
		c0-1.216,0.896-2.144,2.208-2.144C1352.302,166.696,1353.134,167.624,1353.166,168.84z M1348.975,188.774v-15.583h3.936v15.583
		H1348.975z"/>
	<path fill="#7C7C7C" d="M1359.949,182.087c0.097,2.815,2.272,4.031,4.801,4.031c1.823,0,3.104-0.287,4.319-0.703l0.575,2.688
		c-1.344,0.576-3.199,0.992-5.439,0.992c-5.055,0-8.031-3.104-8.031-7.872c0-4.319,2.624-8.383,7.615-8.383
		c5.057,0,6.721,4.159,6.721,7.583c0,0.736-0.064,1.313-0.129,1.664H1359.949z M1366.797,179.335
		c0.032-1.439-0.607-3.808-3.231-3.808c-2.432,0-3.456,2.208-3.616,3.808H1366.797z"/>
	<path fill="#7C7C7C" d="M1373.678,177.831c0-1.792-0.064-3.296-0.128-4.64h3.424l0.192,2.336h0.096
		c0.703-1.216,2.399-2.688,4.991-2.688c2.72,0,5.536,1.76,5.536,6.688v9.247h-3.936v-8.8c0-2.239-0.832-3.936-2.977-3.936
		c-1.567,0-2.655,1.12-3.071,2.304c-0.128,0.32-0.192,0.801-0.192,1.248v9.184h-3.936V177.831z"/>
	<path fill="#7C7C7C" d="M1403.437,188.295c-0.832,0.384-2.464,0.8-4.415,0.8c-4.864,0-8.031-3.136-8.031-7.968
		c0-4.672,3.199-8.287,8.671-8.287c1.439,0,2.911,0.319,3.808,0.704l-0.704,2.976c-0.64-0.32-1.567-0.608-2.976-0.608
		c-3.008,0-4.8,2.208-4.768,5.056c0,3.2,2.08,5.023,4.768,5.023c1.344,0,2.336-0.287,3.104-0.607L1403.437,188.295z"/>
	<path fill="#7C7C7C" d="M1408.846,182.087c0.096,2.815,2.271,4.031,4.799,4.031c1.824,0,3.104-0.287,4.32-0.703l0.576,2.688
		c-1.344,0.576-3.2,0.992-5.439,0.992c-5.057,0-8.031-3.104-8.031-7.872c0-4.319,2.623-8.383,7.615-8.383
		c5.055,0,6.719,4.159,6.719,7.583c0,0.736-0.063,1.313-0.128,1.664H1408.846z M1415.693,179.335
		c0.031-1.439-0.608-3.808-3.232-3.808c-2.432,0-3.455,2.208-3.615,3.808H1415.693z"/>
	<path fill="#7C7C7C" d="M1422.413,185.127c0.864,0.544,2.56,1.151,3.968,1.151c1.729,0,2.496-0.735,2.496-1.76
		c0-1.056-0.641-1.567-2.561-2.271c-3.039-1.024-4.287-2.688-4.287-4.544c0-2.752,2.271-4.863,5.888-4.863
		c1.728,0,3.231,0.416,4.159,0.928l-0.799,2.752c-0.641-0.384-1.92-0.896-3.297-0.896c-1.408,0-2.176,0.704-2.176,1.664
		c0,0.992,0.736,1.44,2.721,2.176c2.848,0.992,4.127,2.432,4.159,4.736c0,2.848-2.208,4.896-6.335,4.896
		c-1.889,0-3.584-0.448-4.736-1.088L1422.413,185.127z"/>
</g>
<g>
</g>
<g>
</g>
</svg>
