<svg width="193" height="20" viewBox="0 0 193 20" fill="none" xmlns="http://www.w3.org/2000/svg">
<path d="M12.5862 0H18.3754C18.6534 0 18.8788 0.223521 18.8788 0.499248V6.2406H12.5862V0Z" fill="#0AC18E"/>
<rect opacity="0.5" x="12.5862" y="6.24078" width="6.29261" height="6.2406" fill="#0AC18E"/>
<path opacity="0.25" d="M12.5862 12.4815H18.8788V18.2229C18.8788 18.4986 18.6534 18.7221 18.3754 18.7221H12.5862V12.4815Z" fill="#0AC18E"/>
<path opacity="0.25" d="M0.503409 0H6.29261V6.2406H0V0.499248C0 0.223521 0.225384 0 0.503409 0Z" fill="#0AC18E"/>
<rect x="6.29321" y="6.24078" width="6.29261" height="6.2406" fill="#0AC18E"/>
<path d="M0 12.4815H6.29261V18.7221H0.503409C0.225384 18.7221 0 18.4986 0 18.2229V12.4815Z" fill="#0AC18E"/>
<rect opacity="0.5" x="6.29321" y="12.4815" width="6.29261" height="6.2406" fill="#0AC18E"/>
<rect opacity="0.5" x="6.29321" width="6.29261" height="6.2406" fill="#0AC18E"/>
<rect opacity="0.5" y="6.24078" width="6.29261" height="6.2406" fill="#0AC18E"/>
<path fill-rule="evenodd" clip-rule="evenodd" d="M35.2013 12.2789C35.2013 15.6779 32.3166 17.0197 29.3201 17.0197H22.4772C22.3878 17.0197 22.2983 16.9302 22.2983 16.8408L22.3654 9.1929L22.2983 1.54505C22.2983 1.4556 22.3878 1.36615 22.4772 1.36615H29.2082C32.406 1.36615 34.7764 2.52898 34.7764 5.2348C34.7764 7.11322 33.7925 8.18661 32.0706 8.70094C34.1726 9.17054 35.2013 10.557 35.2013 12.2789ZM25.7199 3.73607L25.6752 7.67181H29.2532C30.5725 7.67181 31.3776 7.00095 31.3776 5.7263C31.3776 4.33985 30.416 3.73607 29.2532 3.73607H25.7199ZM25.7199 14.6491L25.6752 10.0425H29.2532C30.6172 10.0425 31.7577 10.6239 31.7577 12.2787C31.7577 14.1124 30.662 14.6491 29.2532 14.6491H25.7199ZM39.1763 4.38505H36.1351C36.0456 4.38505 35.9562 4.2956 35.9562 4.20615V1.54506C35.9562 1.45561 36.0456 1.36616 36.1351 1.36616H39.1763C39.2658 1.36616 39.3552 1.45561 39.3552 1.54506V4.20615C39.3552 4.2956 39.2658 4.38505 39.1763 4.38505ZM36.1351 17.019H39.1763C39.2658 17.019 39.3552 16.9296 39.3552 16.8401L39.3105 11.272L39.3552 5.68143C39.3552 5.59198 39.2658 5.50253 39.1763 5.50253H36.1351C36.0456 5.50253 35.9562 5.59198 35.9562 5.68143L36.0009 11.272L35.9562 16.8401C35.9562 16.9296 36.0456 17.019 36.1351 17.019ZM47.7119 14.7837V16.6174C47.7119 16.7292 47.6448 16.8187 47.533 16.8634C46.8845 17.0647 46.1466 17.2436 45.431 17.2436C43.4855 17.2436 41.6294 16.2596 41.6294 13.6433L41.6518 7.87382H40.3324C40.243 7.87382 40.1535 7.78437 40.1535 7.69492V5.68233C40.1535 5.59288 40.243 5.50343 40.3324 5.50343H41.6518L41.6294 2.79761C41.6294 2.70816 41.7189 2.61871 41.8083 2.61871H44.8049C44.8943 2.61871 44.9837 2.70816 44.9837 2.79761L44.9614 5.50343H47.5554C47.6448 5.50343 47.7343 5.59288 47.7343 5.68233V7.69492C47.7343 7.78437 47.6448 7.87382 47.5554 7.87382H44.9614L44.9837 13.5538C44.9837 14.5377 45.4757 14.8508 46.2137 14.8508C46.7727 14.8508 47.1976 14.7614 47.533 14.6496C47.6225 14.6272 47.7119 14.6943 47.7119 14.7837ZM54.0562 17.3102C57.0751 17.3102 59.1995 15.4094 59.4232 12.7707C59.4455 12.6812 59.3561 12.5918 59.2666 12.5918H56.449C56.3595 12.5918 56.2701 12.6589 56.2477 12.7707C56.1136 14.2913 55.2638 15.0964 54.1233 15.074C52.4462 15.0516 51.6188 13.9112 51.6188 11.2724C51.6188 8.72315 52.4238 7.49323 54.1233 7.47087C55.0849 7.47087 55.9123 8.09701 56.1583 9.41637C56.1806 9.52818 56.2701 9.59527 56.3595 9.59527H59.1101C59.1995 9.59527 59.289 9.50582 59.2666 9.41637C59.0206 6.88945 57.0975 5.21229 54.1233 5.21229C50.3665 5.21229 48.175 7.6274 48.175 11.2948C48.175 14.9622 50.3665 17.3102 54.0562 17.3102ZM71.9327 11.2277C71.9327 14.8951 69.8083 17.3102 66.0514 17.3102C62.2946 17.3102 60.1255 14.9622 60.1255 11.2948C60.1255 7.6274 62.2946 5.21229 66.0514 5.21229C69.8083 5.21229 71.9327 7.56031 71.9327 11.2277ZM66.0507 15.0744C64.3736 15.0744 63.5462 13.9116 63.5462 11.3176C63.5462 8.72357 64.3288 7.47129 66.0284 7.44893C67.6832 7.44893 68.4882 8.70121 68.4882 11.2952C68.4882 13.934 67.7055 15.0744 66.0507 15.0744ZM75.8862 4.38505H72.8449C72.7555 4.38505 72.666 4.2956 72.666 4.20615V1.54506C72.666 1.45561 72.7555 1.36616 72.8449 1.36616H75.8862C75.9756 1.36616 76.0651 1.45561 76.0651 1.54506V4.20615C76.0651 4.2956 75.9756 4.38505 75.8862 4.38505ZM72.8449 17.019H75.8862C75.9756 17.019 76.0651 16.9296 76.0651 16.8401L76.0204 11.272L76.0651 5.68143C76.0651 5.59198 75.9756 5.50253 75.8862 5.50253H72.8449C72.7555 5.50253 72.666 5.59198 72.666 5.68143L72.7108 11.272L72.666 16.8401C72.666 16.9296 72.7555 17.019 72.8449 17.019ZM80.2215 17.019H77.1355C77.046 17.019 76.9566 16.9296 76.9566 16.8401L77.0013 11.4956V5.68142C77.0013 5.59197 77.0908 5.50252 77.1802 5.50252H80.0649C80.1544 5.50252 80.2438 5.59197 80.2438 5.68142L80.1768 6.95606C80.9594 5.94977 82.2788 5.23418 83.8889 5.23418C86.3263 5.23418 87.9141 6.88898 87.9141 9.70661V12.1217L87.9588 16.8401C87.9588 16.9296 87.8693 17.019 87.7799 17.019H84.7386C84.6492 17.019 84.5597 16.9296 84.5597 16.8401L84.6045 12.1217V9.75133C84.6045 8.49905 83.8665 7.69402 82.8602 7.69402C81.6527 7.69402 80.3556 8.81212 80.3556 11.272V12.1217L80.4004 16.8401C80.4004 16.9296 80.3109 17.019 80.2215 17.019ZM88.9527 17.0188H92.0834C92.1728 17.0188 92.2623 16.9294 92.2623 16.8399V13.9999C92.2623 13.9105 92.1728 13.821 92.0834 13.821H88.9527C88.8632 13.821 88.7738 13.9105 88.7738 13.9999V16.8399C88.7738 16.9294 88.8632 17.0188 88.9527 17.0188ZM104.153 12.7707C103.929 15.4094 101.805 17.3102 98.7858 17.3102C95.096 17.3102 92.9045 14.9622 92.9045 11.2948C92.9045 7.6274 95.096 5.21229 98.8528 5.21229C101.827 5.21229 103.75 6.88945 103.996 9.41637C104.019 9.50582 103.929 9.59527 103.84 9.59527H101.089C101 9.59527 100.91 9.52818 100.888 9.41637C100.642 8.09701 99.8144 7.47087 98.8528 7.47087C97.1533 7.49323 96.3483 8.72315 96.3483 11.2724C96.3483 13.9112 97.1757 15.0516 98.8528 15.074C99.9933 15.0964 100.843 14.2913 100.977 12.7707C101 12.6589 101.089 12.5918 101.179 12.5918H103.996C104.086 12.5918 104.175 12.6812 104.153 12.7707ZM110.781 17.3102C114.538 17.3102 116.662 14.8951 116.662 11.2277C116.662 7.56031 114.538 5.21229 110.781 5.21229C107.024 5.21229 104.855 7.6274 104.855 11.2948C104.855 14.9622 107.024 17.3102 110.781 17.3102ZM108.276 11.3176C108.276 13.9116 109.103 15.0744 110.78 15.0744C112.435 15.0744 113.218 13.934 113.218 11.2952C113.218 8.70121 112.413 7.44893 110.758 7.44893C109.058 7.47129 108.276 8.72357 108.276 11.3176ZM120.857 12.882V11.272C120.857 8.92393 121.931 7.69402 122.87 7.69402C123.809 7.69402 124.346 8.36488 124.346 9.75133V12.882L124.301 16.8401C124.301 16.9296 124.39 17.019 124.48 17.019H127.521C127.611 17.019 127.7 16.9296 127.7 16.8401L127.655 12.882V11.272C127.655 8.92393 128.751 7.69402 129.668 7.69402C130.585 7.69402 131.144 8.36488 131.144 9.75133V12.882L131.099 16.8401C131.099 16.9296 131.189 17.019 131.278 17.019H134.319C134.409 17.019 134.498 16.9296 134.498 16.8401L134.453 12.882V9.70661C134.453 6.64299 133.112 5.23418 130.786 5.23418C129.422 5.23418 128.282 5.65906 127.298 7.40331C126.761 5.92741 125.598 5.23418 123.988 5.23418C122.512 5.23418 121.483 5.83796 120.678 6.95606L120.745 5.68142C120.745 5.59197 120.656 5.50252 120.567 5.50252H117.682C117.592 5.50252 117.503 5.59197 117.503 5.68142V12.882L117.458 16.8401C117.458 16.9296 117.548 17.019 117.637 17.019H120.723C120.813 17.019 120.902 16.9296 120.902 16.8401L120.857 12.882Z" fill="#131720"/>
<path d="M141.114 11.302V16.736C141.114 16.89 141.004 17 140.85 17H138.21C138.056 17 137.946 16.89 137.946 16.736L138.078 9.3L137.946 1.864C137.946 1.71 138.056 1.6 138.21 1.6H141.818C141.95 1.6 142.082 1.666 142.148 1.776L148.308 12.666L148.176 8.046V1.864C148.176 1.71 148.286 1.6 148.44 1.6H151.08C151.234 1.6 151.344 1.71 151.344 1.864L151.212 9.3L151.344 16.736C151.344 16.89 151.234 17 151.08 17H147.34C147.208 17 147.076 16.934 147.01 16.824L140.96 6L141.114 11.302ZM158.677 15.086C159.777 15.086 160.569 14.602 160.877 13.414C160.899 13.26 161.009 13.172 161.163 13.172H163.803C163.979 13.172 164.089 13.282 164.067 13.458C163.737 15.482 161.779 17.286 158.633 17.286C154.849 17.286 152.803 14.8 152.803 11.368C152.803 7.76 154.959 5.384 158.567 5.384C162.263 5.384 164.331 7.826 164.419 11.742C164.419 11.918 164.309 12.006 164.155 12.006H156.125C156.257 14.14 157.093 15.086 158.677 15.086ZM158.589 7.562C157.247 7.562 156.477 8.354 156.213 9.916H160.855C160.723 8.706 160.041 7.562 158.589 7.562ZM170.772 16.758C170.75 16.934 170.64 17 170.486 17H167.098C166.944 17 166.834 16.912 166.812 16.758L164.414 5.956C164.37 5.758 164.48 5.67 164.656 5.67H167.428C167.582 5.67 167.692 5.736 167.714 5.912L168.968 14.36L170.53 5.912C170.552 5.736 170.662 5.67 170.816 5.67H174.314C174.468 5.67 174.578 5.736 174.6 5.912L176.118 14.162L177.416 5.912C177.438 5.736 177.548 5.67 177.702 5.67H180.21C180.386 5.67 180.496 5.758 180.452 5.956L178.076 16.758C178.054 16.912 177.944 17 177.79 17H174.38C174.226 17 174.116 16.912 174.094 16.758L172.312 8.376L170.772 16.758ZM186.407 17.264C183.261 17.264 180.951 15.944 180.797 13.458C180.797 13.282 180.907 13.194 181.061 13.194H183.745C183.899 13.194 184.009 13.282 184.009 13.458C184.119 14.668 184.955 15.218 186.473 15.218C187.771 15.218 188.475 14.712 188.475 13.832C188.475 11.676 181.061 13.766 181.061 9.014C181.061 6.66 182.953 5.406 186.011 5.406C188.959 5.406 190.939 6.572 191.181 8.904C191.203 9.08 191.115 9.168 190.939 9.168H188.365C188.211 9.168 188.123 9.08 188.079 8.926C187.903 7.98 187.287 7.408 185.966 7.408C184.889 7.408 184.207 7.804 184.207 8.772C184.207 10.928 191.62 8.728 191.62 13.546C191.62 15.922 189.377 17.264 186.407 17.264Z" fill="#0AC18E"/>
</svg>
