<?xml version="1.0" encoding="UTF-8"?> <svg xmlns="http://www.w3.org/2000/svg" width="743" height="119" viewBox="0 0 743 119" fill="none"><path d="M237.721 59.5491C237.721 63.9836 236.929 68.2597 235.504 72.6942C233.92 76.9704 231.703 80.9297 228.535 84.414C225.368 87.8982 221.408 90.5906 216.499 92.8079C211.589 94.8667 205.887 95.9754 199.236 95.9754H176.271C174.371 95.9754 172.154 95.9754 169.461 96.1337C166.927 96.2921 164.393 96.2921 162.176 96.4505C162.018 96.1337 162.018 95.817 162.018 95.5002C162.018 95.1835 162.018 94.8667 162.018 94.55C162.018 93.7581 162.176 93.1246 162.334 92.9662C162.651 92.6495 162.968 92.4911 163.285 92.4911C165.502 92.1744 167.244 91.6992 168.511 91.0657C169.778 90.4322 170.411 89.3236 170.411 87.7399L170.57 31.6751C170.57 30.2497 170.095 29.1411 168.986 28.5076C167.877 27.8741 166.135 27.399 163.443 26.9238C162.809 26.7655 162.493 26.6071 162.334 26.132C162.176 25.8152 162.176 25.3401 162.176 24.7066C162.176 24.5482 162.176 24.2315 162.176 23.7563C162.176 23.4396 162.176 22.9645 162.334 22.6477C163.918 22.8061 165.343 22.9645 166.452 22.9645C167.719 22.9645 168.828 23.1228 169.936 23.1228C171.045 23.1228 171.995 23.2812 173.104 23.2812C174.212 23.2812 175.163 23.2812 176.271 23.2812H198.919C205.254 23.2812 210.797 24.2314 215.707 26.2903C220.458 28.1908 224.576 30.8832 227.743 34.2091C230.911 37.535 233.445 41.336 235.028 45.7705C236.929 49.8882 237.721 54.6395 237.721 59.5491ZM222.2 61.7663C222.2 55.9065 221.567 50.9968 220.3 46.7207C219.033 42.603 216.974 39.1187 214.44 36.4263C211.906 33.734 208.738 31.8335 204.779 30.5665C200.978 29.2995 196.543 28.666 191.634 28.666H184.665L184.507 86.1561C184.507 86.948 184.665 87.5815 184.824 88.0566C184.982 88.5317 185.457 89.0069 186.091 89.3236C186.724 89.6404 187.674 89.7987 188.941 89.9571C190.208 90.1155 191.792 90.1155 193.693 90.1155C203.353 90.1155 210.48 87.5815 215.073 82.5135C219.983 77.4455 222.2 70.477 222.2 61.7663Z" fill="#111111"></path><path d="M280.957 71.4272H257.518L251.658 86.948C251.5 87.2647 251.341 87.7398 251.183 88.215C251.183 88.6901 251.024 89.0068 251.024 89.1652C251.024 89.9571 251.341 90.5906 252.133 91.2241C252.925 91.6992 254.509 92.1743 256.884 92.6495C257.993 92.8078 258.468 93.4413 258.468 94.7083C258.468 95.1835 258.468 95.817 258.31 96.6088C256.251 96.4505 254.192 96.2921 251.975 96.1337C249.757 95.9753 247.54 95.9753 245.323 95.9753C243.898 95.9753 242.314 95.9753 240.572 96.1337C238.988 96.1337 237.087 96.2921 235.029 96.6088C234.87 96.2921 234.87 95.9753 234.87 95.6586C234.87 95.3418 234.87 95.0251 234.87 94.7083C234.87 93.283 235.345 92.4911 236.296 92.4911C238.671 92.016 240.255 91.5408 241.205 91.0657C242.155 90.5906 242.947 89.6403 243.581 88.3733L270.663 23.9147C271.296 22.6477 272.088 22.0142 273.355 22.0142C273.672 22.0142 274.147 22.0142 274.464 22.0142C274.781 22.0142 275.256 22.1725 275.731 22.1725L302.496 88.6901C302.971 89.7987 303.763 90.5906 305.03 91.2241C306.297 91.8576 307.723 92.1743 309.148 92.3327C310.257 92.4911 310.89 93.283 310.89 94.55C310.89 95.1835 310.89 95.817 310.732 96.6088C308.356 96.4505 305.981 96.2921 303.605 96.1337C301.229 95.9753 299.17 95.9753 297.112 95.9753C296.003 95.9753 294.736 95.9753 293.311 95.9753C291.885 95.9753 290.301 96.1337 288.718 96.1337C287.134 96.1337 285.55 96.2921 284.125 96.2921C282.541 96.2921 281.274 96.4505 280.324 96.4505C280.165 96.1337 280.165 95.817 280.165 95.5002C280.165 95.1835 280.165 94.8667 280.165 94.55C280.165 93.9165 280.324 93.4413 280.482 92.9662C280.799 92.6495 280.957 92.4911 281.274 92.3327C283.175 92.016 284.6 91.5408 285.55 91.0657C286.5 90.5906 286.976 89.7987 286.976 88.8484C286.976 88.3733 286.817 87.8982 286.659 87.1063L280.957 71.4272ZM278.74 65.8841L269.238 40.7024L259.418 65.8841H278.74Z" fill="#111111"></path><path d="M338.131 87.8982C338.131 88.6901 338.131 89.3236 338.289 89.7987C338.448 90.2739 338.764 90.749 339.239 91.0657C339.715 91.3825 340.506 91.6992 341.298 92.016C342.249 92.3327 343.516 92.4911 345.099 92.8078C345.891 92.9662 346.208 93.5997 346.208 94.7084C346.208 94.8667 346.208 95.3419 346.208 95.6586C346.208 96.1337 346.05 96.4505 346.05 96.7672C343.674 96.6088 341.14 96.4505 338.448 96.2921C335.755 96.1337 333.38 96.1337 331.162 96.1337C328.945 96.1337 326.569 96.1337 323.877 96.2921C321.185 96.4505 318.651 96.4505 316.275 96.6089C316.117 96.2921 316.117 95.9754 316.117 95.5002C316.117 95.0251 316.117 94.7084 316.117 94.55C316.117 93.283 316.433 92.6495 317.225 92.6495C318.809 92.4911 320.076 92.1744 321.026 91.8576C321.977 91.5408 322.61 91.2241 323.085 90.9074C323.56 90.5906 323.877 90.1155 324.035 89.6404C324.194 89.1652 324.194 88.5317 324.194 87.7399L324.352 31.6751C324.352 30.8832 324.352 30.2497 324.194 29.7746C324.035 29.2995 323.719 28.8243 323.244 28.5076C322.768 28.1908 322.135 27.8741 321.185 27.5573C320.234 27.2406 318.967 27.0822 317.384 26.7655C316.592 26.6071 316.275 25.9736 316.275 24.865C316.275 24.7066 316.275 24.2314 316.275 23.9147C316.275 23.4396 316.275 23.1228 316.433 22.6477C318.809 22.8061 321.343 22.9644 324.035 23.1228C326.728 23.2812 329.103 23.2812 331.321 23.2812C333.38 23.2812 335.755 23.2812 338.606 23.1228C341.298 22.9644 343.832 22.9645 346.208 22.8061C346.208 23.1228 346.366 23.598 346.366 24.0731C346.366 24.5482 346.366 24.865 346.366 25.0233C346.366 26.132 346.05 26.7655 345.258 26.9238C343.674 27.0822 342.407 27.399 341.457 27.7157C340.506 28.0325 339.873 28.3492 339.398 28.666C338.923 28.9827 338.606 29.4578 338.448 29.933C338.289 30.4081 338.289 31.0416 338.289 31.8335L338.131 87.8982Z" fill="#111111"></path><path d="M378.358 86.7896C378.358 88.3734 379.308 89.482 381.367 89.9571C383.426 90.4322 386.752 90.749 391.345 90.749H395.621C397.521 90.749 399.105 90.5906 400.53 90.1155C401.956 89.6404 403.064 89.0069 404.173 88.0566C405.282 87.1063 406.232 85.8394 407.024 84.2556C407.816 82.6719 408.766 80.9297 409.558 78.7125C409.716 78.079 410.35 77.7622 411.3 77.7622C411.617 77.7622 412.092 77.9206 412.567 78.079C413.042 78.2374 413.676 78.5541 414.151 78.7125C413.517 81.0881 413.042 83.6221 412.567 86.4728C412.092 89.3236 411.617 92.016 411.3 94.7084C411.3 95.6586 410.983 96.1337 410.508 96.4505C410.033 96.6089 409.716 96.7672 409.241 96.7672C408.608 96.7672 407.816 96.7672 406.707 96.6089C405.598 96.6089 404.49 96.4505 403.223 96.4505C401.956 96.4505 400.689 96.2921 399.422 96.2921C398.155 96.2921 397.046 96.1337 395.938 96.1337H370.598C368.38 96.1337 366.005 96.1337 363.154 96.2921C360.303 96.4505 357.769 96.4505 355.552 96.6089C355.394 96.2921 355.394 95.9754 355.394 95.5002C355.394 95.0251 355.394 94.7084 355.394 94.3916C355.394 93.283 355.71 92.6495 356.502 92.6495C359.353 92.1744 361.412 91.5409 362.679 90.9074C363.946 90.2739 364.579 89.3236 364.579 87.7399L364.738 31.6751C364.738 30.8832 364.738 30.2497 364.579 29.7746C364.421 29.2995 364.104 28.8243 363.629 28.5076C363.154 28.1908 362.52 27.8741 361.57 27.5573C360.62 27.2406 359.353 27.0822 357.769 26.7655C356.977 26.6071 356.661 25.9736 356.661 24.865C356.661 24.7066 356.661 24.2314 356.661 23.9147C356.661 23.4396 356.661 23.1228 356.819 22.6477C359.195 22.8061 361.729 22.9644 364.421 23.1228C367.113 23.2812 369.489 23.2812 371.548 23.2812C372.656 23.2812 373.765 23.2812 375.19 23.2812C376.616 23.2812 377.883 23.2812 379.308 23.1228C380.734 23.1228 382.159 22.9645 383.743 22.9645C385.168 22.9645 386.593 22.8061 387.702 22.8061C387.702 23.1228 387.86 23.598 387.86 24.0731C387.86 24.5482 387.86 24.865 387.86 25.0233C387.86 26.132 387.544 26.7655 386.752 26.9238C383.584 27.399 381.367 27.8741 380.258 28.666C379.15 29.2995 378.675 30.4081 378.675 31.9918L378.358 86.7896Z" fill="#111111"></path><path d="M434.106 65.7256L416.368 31.8334C415.576 30.2496 414.468 29.141 413.359 28.5075C412.092 27.874 410.508 27.3989 408.608 27.0821C407.658 27.0821 407.341 26.2902 407.341 24.8649C407.341 24.7065 407.341 24.5481 407.341 24.3897C407.341 24.2314 407.341 24.073 407.499 23.7562L407.658 22.9644C409.241 23.1227 411.459 23.2811 413.993 23.4395C416.527 23.5979 419.377 23.5979 422.386 23.5979C423.495 23.5979 424.604 23.5979 426.188 23.5979C427.613 23.5979 429.038 23.5979 430.622 23.4395C432.206 23.2811 433.473 23.2811 434.898 23.2811C436.165 23.2811 437.274 23.1227 438.066 23.1227C438.224 23.7562 438.224 24.2314 438.224 24.5481C438.224 24.8649 438.224 25.0232 438.224 25.1816C438.224 26.4486 437.749 27.0821 436.957 27.2405C435.056 27.3989 433.631 27.7156 432.998 28.1907C432.206 28.6659 431.889 29.141 431.889 29.7745C431.889 30.408 432.206 31.1999 432.681 32.1501L445.668 58.1236L458.654 34.0506C459.446 32.6252 459.921 31.5166 459.921 30.408C459.921 29.4577 459.446 28.8242 458.654 28.5075C457.863 28.0324 456.437 27.7156 454.378 27.3989C453.428 27.2405 452.953 26.607 452.953 25.34C452.953 25.0232 453.111 24.3897 453.27 23.2811C454.853 23.4395 456.754 23.5979 459.13 23.7562C461.505 23.9146 463.564 23.9146 465.306 23.9146C467.048 23.9146 468.79 23.9146 470.691 23.7562C472.591 23.7562 474.492 23.5979 476.392 23.2811C476.551 23.7562 476.551 24.2314 476.551 24.5481C476.551 24.8649 476.551 25.1816 476.551 25.34C476.551 26.607 476.076 27.3989 475.284 27.3989C472.591 27.7156 470.691 28.1907 469.741 28.8242C468.632 29.4577 467.84 30.408 467.048 31.675L448.202 65.5673V87.8981C448.202 88.69 448.36 89.3235 448.518 89.957C448.677 90.4321 449.152 90.9073 449.785 91.3824C450.419 91.6991 451.211 92.0159 452.161 92.3326C453.111 92.6494 454.537 92.8078 456.12 93.1245C456.437 93.1245 456.754 93.4413 457.071 93.5996C457.387 93.9164 457.387 94.3915 457.387 95.1834C457.387 95.3418 457.387 95.5001 457.387 95.6585C457.387 95.8169 457.387 95.9753 457.387 96.292L457.229 97.0839C455.962 97.0839 454.853 97.0839 453.903 97.0839C452.795 97.0839 451.844 96.9255 450.736 96.9255C448.994 96.7671 447.093 96.6088 445.193 96.6088C443.292 96.6088 441.708 96.6088 440.441 96.6088C439.174 96.6088 437.59 96.6088 435.848 96.6088C434.106 96.6088 432.364 96.7671 430.78 96.9255C429.83 96.9255 428.88 97.0839 427.93 97.0839C426.979 97.0839 426.029 97.0839 425.079 97.0839L424.92 96.292C424.92 96.1336 424.762 95.8169 424.762 95.6585C424.762 95.5001 424.762 95.3418 424.762 95.1834C424.762 94.3915 424.92 93.758 425.079 93.5996C425.396 93.2829 425.712 93.1245 426.029 93.1245C427.613 92.8078 428.88 92.491 429.988 92.3326C431.097 92.0159 431.889 91.6991 432.523 91.3824C433.156 91.0656 433.473 90.5905 433.789 90.1154C433.948 89.6403 434.106 88.8484 434.106 88.0565V65.7256Z" fill="#111111"></path><path d="M511.393 98.0341C505.058 98.0341 499.673 97.0838 494.922 95.025C490.171 93.1245 486.369 90.4321 483.36 86.9478C480.351 83.622 477.976 79.5042 476.55 74.9113C474.966 70.3185 474.333 65.4088 474.333 60.0241C474.333 55.5896 475.125 51.1551 476.55 46.7206C477.976 42.2861 480.351 38.1683 483.677 34.5257C486.845 30.8831 490.962 28.0323 496.03 25.6567C501.098 23.4394 506.958 22.3308 513.927 22.3308C517.728 22.3308 521.37 22.6476 524.696 23.1227C528.022 23.5978 531.665 24.3897 535.466 25.4983C535.624 27.5572 535.941 30.0912 536.416 33.2587C536.891 36.4262 537.525 39.4353 538.317 42.4445C538 42.4445 537.525 42.6028 536.891 42.7612C536.258 42.9196 535.783 42.9196 535.624 42.9196C534.991 42.9196 534.516 42.7612 534.04 42.6028C533.565 42.4444 533.407 41.9693 533.249 41.4942C532.457 38.9602 531.506 36.9013 530.398 35.3176C529.289 33.5754 528.181 32.3084 526.597 31.3582C525.171 30.4079 523.429 29.6161 521.529 29.1409C519.628 28.6658 517.253 28.5074 514.719 28.5074C510.759 28.5074 507.117 29.1409 503.949 30.5663C500.782 31.9917 498.248 33.8922 496.189 36.4262C494.13 38.9602 492.546 42.1277 491.438 45.7703C490.329 49.413 489.854 53.5307 489.854 57.9652C489.854 62.8748 490.487 67.3093 491.754 71.5855C493.021 75.7032 494.763 79.3458 497.139 82.5133C499.356 85.5225 502.049 87.8981 505.216 89.6402C508.384 91.3823 511.71 92.1742 515.352 92.1742C518.361 92.1742 520.895 91.8575 522.954 91.3823C525.013 90.9072 526.914 89.957 528.497 88.8483C530.081 87.7397 531.348 86.156 532.457 84.4138C533.565 82.6717 534.516 80.6128 535.466 78.0788C535.624 77.4453 536.099 77.1286 536.574 76.8118C537.05 76.4951 537.525 76.4951 538.158 76.4951C538.475 76.4951 538.95 76.4951 539.584 76.6535C540.217 76.8118 540.534 76.9702 541.009 76.9702C540.534 78.2372 540.059 79.6626 539.584 81.2463C539.108 82.8301 538.633 84.4138 538 86.156C537.525 87.8981 537.05 89.4818 536.574 91.224C536.099 92.9661 535.783 94.5499 535.466 96.1336C531.823 96.7671 528.022 97.2422 524.221 97.559C520.103 97.8757 515.986 98.0341 511.393 98.0341Z" fill="#111111"></path><path d="M546.869 60.3409C546.869 55.1145 547.819 50.2049 549.878 45.612C551.937 41.0191 554.63 37.0597 557.955 33.7339C561.44 30.2496 565.399 27.5572 569.992 25.6567C574.585 23.7562 579.494 22.6476 584.721 22.806C590.106 22.806 595.015 23.7562 599.766 25.6567C604.359 27.5572 608.319 30.0912 611.803 33.5755C615.129 36.9014 617.821 40.8607 619.722 45.612C621.622 50.2049 622.572 55.2729 622.572 60.6576C622.572 65.884 621.622 70.7936 619.563 75.3865C617.504 79.9794 614.812 83.9387 611.486 87.2646C608.002 90.5905 604.043 93.2829 599.45 95.3418C594.857 97.2423 589.947 98.3509 584.721 98.1925C579.336 98.1925 574.426 97.2423 569.675 95.3418C565.082 93.4413 561.123 90.9073 557.639 87.423C554.313 84.0971 551.62 80.1378 549.72 75.5449C547.819 70.952 546.869 65.884 546.869 60.3409ZM586.305 92.3326C589.472 92.3326 592.323 91.6991 594.857 90.2738C597.391 88.8484 599.608 86.9479 601.35 84.5723C603.251 82.1966 604.676 79.3459 605.626 76.1784C606.577 73.0109 607.21 69.5266 607.21 65.884C607.21 60.6576 606.735 55.5896 605.785 51.1551C604.834 46.5622 603.251 42.6029 601.192 39.277C599.133 35.9511 596.599 33.2587 593.431 31.3582C590.264 29.4577 586.78 28.5075 582.662 28.5075C580.128 28.5075 577.436 29.141 575.06 30.2496C572.526 31.3582 570.467 33.1004 568.567 35.3176C566.666 37.5349 565.241 40.2272 564.132 43.2364C563.023 46.2455 562.39 49.8881 562.39 53.8475C562.39 59.3906 562.865 64.4586 563.974 69.2099C565.082 73.9611 566.666 77.9205 568.567 81.4048C570.625 84.7306 573.159 87.423 576.169 89.3235C579.019 91.3824 582.504 92.3326 586.305 92.3326Z" fill="#111111"></path><path d="M652.505 88.6902C652.505 89.4821 652.505 90.1156 652.664 90.5907C652.822 91.0658 653.139 91.541 653.614 91.8577C654.089 92.1745 654.881 92.4912 655.673 92.808C656.623 93.1247 657.89 93.2831 659.474 93.5998C660.266 93.7582 660.582 94.3917 660.582 95.5003C660.582 95.6587 660.582 96.1338 660.582 96.4506C660.582 96.9257 660.424 97.2425 660.424 97.5592C658.048 97.4008 655.514 97.2425 652.822 97.0841C650.13 96.9257 647.754 96.9257 645.537 96.9257C643.32 96.9257 640.944 96.9257 638.252 97.0841C635.559 97.2425 633.025 97.2425 630.65 97.4008C630.491 97.0841 630.491 96.7673 630.491 96.2922C630.491 95.8171 630.491 95.5003 630.491 95.342C630.491 94.075 630.808 93.4415 631.6 93.4415C633.184 93.2831 634.451 92.9663 635.401 92.6496C636.351 92.3328 636.985 92.0161 637.46 91.6993C637.935 91.3826 638.252 90.9074 638.41 90.4323C638.568 89.9572 638.568 89.3237 638.568 88.5318L638.727 32.4671C638.727 31.6752 638.727 31.0417 638.568 30.5666C638.41 30.0914 638.093 29.6163 637.618 29.2996C637.143 28.9828 636.509 28.6661 635.559 28.3493C634.609 28.0326 633.342 27.8742 631.758 27.5574C630.966 27.3991 630.65 26.7656 630.65 25.6569C630.65 25.4986 630.65 25.0234 630.65 24.7067C630.65 24.2316 630.65 23.9148 630.808 23.4397C633.184 23.5981 635.718 23.7564 638.41 23.9148C641.102 24.0732 643.478 24.0732 645.695 24.0732C647.754 24.0732 650.13 24.0732 652.98 23.9148C655.673 23.7564 658.207 23.7564 660.582 23.5981C660.582 23.9148 660.741 24.3899 660.741 24.8651C660.741 25.3402 660.741 25.6569 660.741 25.8153C660.741 26.9239 660.424 27.5574 659.632 27.7158C658.048 27.8742 656.781 28.1909 655.831 28.5077C654.881 28.8244 654.247 29.1412 653.772 29.4579C653.297 29.7747 652.98 30.2498 652.822 30.7249C652.664 31.2001 652.664 31.8336 652.664 32.6254L652.505 88.6902Z" fill="#111111"></path><path d="M728.208 72.6942L728.367 32.9421C728.367 31.3583 727.891 30.0913 726.624 29.4578C725.516 28.8243 723.457 28.1908 720.765 27.8741C719.814 27.7157 719.339 26.9238 719.339 25.8152C719.339 25.6568 719.339 25.3401 719.339 24.8649C719.339 24.5482 719.339 24.0731 719.498 23.7563C721.398 23.9147 723.14 24.0731 725.041 24.2314C726.783 24.2314 728.842 24.3898 731.376 24.3898C733.751 24.3898 735.81 24.3898 737.552 24.2314C739.294 24.2314 741.037 24.0731 742.779 23.7563C742.779 24.0731 742.937 24.5482 742.937 24.8649C742.937 25.1817 742.937 25.4984 742.937 25.8152C742.937 27.0822 742.462 27.7157 741.67 27.8741C739.136 28.1908 737.552 28.8243 736.602 29.4578C735.652 30.0913 735.335 31.1999 735.177 32.6253L735.018 98.0342C734.702 98.0342 734.226 98.1926 733.435 98.1926C732.801 98.1926 732.326 98.1926 732.009 98.1926C731.534 98.1926 730.901 98.0342 730.267 97.8758C729.634 97.7175 729 97.084 728.367 96.2921L684.338 40.2273L684.18 88.5317C684.18 89.3236 684.18 89.9571 684.338 90.4322C684.497 90.9073 684.813 91.3825 685.289 91.6992C685.764 92.016 686.556 92.3327 687.347 92.6495C688.298 92.9662 689.565 93.1246 691.148 93.4413C691.465 93.4413 691.782 93.7581 692.099 93.9165C692.415 94.2332 692.415 94.7083 692.415 95.5002C692.415 95.9753 692.257 96.6088 692.257 97.4007C690.357 97.2423 688.614 97.084 687.031 96.9256C685.447 96.7672 683.546 96.7672 681.329 96.7672C679.112 96.7672 677.053 96.7672 675.153 96.9256C673.252 97.084 671.352 97.084 669.768 97.2423C669.609 96.9256 669.609 96.6088 669.609 96.2921C669.609 95.9753 669.609 95.6586 669.609 95.3418C669.609 94.55 669.768 94.0748 669.926 93.7581C670.243 93.4413 670.56 93.283 670.876 93.1246C673.569 92.6495 675.311 92.1743 676.261 91.3825C677.211 90.749 677.687 89.6403 677.687 88.215L677.845 31.5167C677.845 30.2497 677.528 29.4578 676.736 28.8243C675.944 28.1908 674.202 27.7157 671.352 27.2406C670.401 27.0822 670.085 26.2903 670.085 25.1817C670.085 25.0233 670.085 24.8649 670.085 24.7066C670.085 24.5482 670.084 24.3898 670.243 24.0731L670.401 23.1228C671.51 23.1228 672.46 23.2812 673.41 23.2812C674.361 23.2812 675.311 23.4396 676.261 23.4396C677.845 23.4396 679.587 23.5979 681.171 23.5979C682.913 23.5979 684.18 23.5979 685.289 23.5979C687.506 23.5979 688.931 23.7563 689.565 23.9147C690.198 24.0731 690.832 24.3898 691.307 25.0233L728.208 72.6942Z" fill="#111111"></path><path d="M9.5025 19.005C14.7506 19.005 19.005 14.7506 19.005 9.5025C19.005 4.25441 14.7506 0 9.5025 0C4.25442 0 0 4.25441 0 9.5025C0 14.7506 4.25442 19.005 9.5025 19.005Z" fill="#F7BE23"></path><path d="M9.5025 44.0284C14.7506 44.0284 19.005 39.774 19.005 34.5259C19.005 29.2779 14.7506 25.0234 9.5025 25.0234C4.25442 25.0234 0 29.2779 0 34.5259C0 39.774 4.25442 44.0284 9.5025 44.0284Z" fill="#F7BE23"></path><path d="M9.5025 68.8932C14.7506 68.8932 19.005 64.6388 19.005 59.3907C19.005 54.1426 14.7506 49.8882 9.5025 49.8882C4.25442 49.8882 0 54.1426 0 59.3907C0 64.6388 4.25442 68.8932 9.5025 68.8932Z" fill="#F7BE23"></path><path d="M9.5025 93.9164C14.7506 93.9164 19.005 89.662 19.005 84.4139C19.005 79.1658 14.7506 74.9114 9.5025 74.9114C4.25442 74.9114 0 79.1658 0 84.4139C0 89.662 4.25442 93.9164 9.5025 93.9164Z" fill="#F7BE23"></path><path d="M9.5025 118.781C14.7506 118.781 19.005 114.527 19.005 109.279C19.005 104.031 14.7506 99.7764 9.5025 99.7764C4.25442 99.7764 0 104.031 0 109.279C0 114.527 4.25442 118.781 9.5025 118.781Z" fill="#F7BE23"></path><path d="M9.5025 19.005C14.7506 19.005 19.005 14.7506 19.005 9.5025C19.005 4.25441 14.7506 0 9.5025 0C4.25442 0 0 4.25441 0 9.5025C0 14.7506 4.25442 19.005 9.5025 19.005Z" fill="#F7BE23"></path><path d="M9.5025 44.0284C14.7506 44.0284 19.005 39.774 19.005 34.5259C19.005 29.2779 14.7506 25.0234 9.5025 25.0234C4.25442 25.0234 0 29.2779 0 34.5259C0 39.774 4.25442 44.0284 9.5025 44.0284Z" fill="#F7BE23"></path><path d="M9.5025 68.8932C14.7506 68.8932 19.005 64.6388 19.005 59.3907C19.005 54.1426 14.7506 49.8882 9.5025 49.8882C4.25442 49.8882 0 54.1426 0 59.3907C0 64.6388 4.25442 68.8932 9.5025 68.8932Z" fill="#F7BE23"></path><path d="M9.5025 93.9164C14.7506 93.9164 19.005 89.662 19.005 84.4139C19.005 79.1658 14.7506 74.9114 9.5025 74.9114C4.25442 74.9114 0 79.1658 0 84.4139C0 89.662 4.25442 93.9164 9.5025 93.9164Z" fill="#F7BE23"></path><path d="M9.5025 118.781C14.7506 118.781 19.005 114.527 19.005 109.279C19.005 104.031 14.7506 99.7764 9.5025 99.7764C4.25442 99.7764 0 104.031 0 109.279C0 114.527 4.25442 118.781 9.5025 118.781Z" fill="#F7BE23"></path><path d="M34.3677 19.005C39.6158 19.005 43.8702 14.7506 43.8702 9.5025C43.8702 4.25441 39.6158 0 34.3677 0C29.1196 0 24.8652 4.25441 24.8652 9.5025C24.8652 14.7506 29.1196 19.005 34.3677 19.005Z" fill="#F7BE23"></path><path d="M34.3677 44.0284C39.6158 44.0284 43.8702 39.774 43.8702 34.5259C43.8702 29.2779 39.6158 25.0234 34.3677 25.0234C29.1196 25.0234 24.8652 29.2779 24.8652 34.5259C24.8652 39.774 29.1196 44.0284 34.3677 44.0284Z" fill="#F7BE23"></path><path d="M34.3677 68.8932C39.6158 68.8932 43.8702 64.6388 43.8702 59.3907C43.8702 54.1426 39.6158 49.8882 34.3677 49.8882C29.1196 49.8882 24.8652 54.1426 24.8652 59.3907C24.8652 64.6388 29.1196 68.8932 34.3677 68.8932Z" fill="#F7BE23"></path><path d="M34.3677 93.9164C39.6158 93.9164 43.8702 89.662 43.8702 84.4139C43.8702 79.1658 39.6158 74.9114 34.3677 74.9114C29.1196 74.9114 24.8652 79.1658 24.8652 84.4139C24.8652 89.662 29.1196 93.9164 34.3677 93.9164Z" fill="#F7BE23"></path><path d="M34.3677 118.781C39.6158 118.781 43.8702 114.527 43.8702 109.279C43.8702 104.031 39.6158 99.7764 34.3677 99.7764C29.1196 99.7764 24.8652 104.031 24.8652 109.279C24.8652 114.527 29.1196 118.781 34.3677 118.781Z" fill="#F7BE23"></path><path d="M59.3907 19.005C64.6388 19.005 68.8932 14.7506 68.8932 9.5025C68.8932 4.25441 64.6388 0 59.3907 0C54.1426 0 49.8882 4.25441 49.8882 9.5025C49.8882 14.7506 54.1426 19.005 59.3907 19.005Z" fill="#F7BE23"></path><path d="M59.3907 44.0284C64.6388 44.0284 68.8932 39.774 68.8932 34.5259C68.8932 29.2779 64.6388 25.0234 59.3907 25.0234C54.1426 25.0234 49.8882 29.2779 49.8882 34.5259C49.8882 39.774 54.1426 44.0284 59.3907 44.0284Z" fill="#F7BE23"></path><path d="M59.3907 68.8932C64.6388 68.8932 68.8932 64.6388 68.8932 59.3907C68.8932 54.1426 64.6388 49.8882 59.3907 49.8882C54.1426 49.8882 49.8882 54.1426 49.8882 59.3907C49.8882 64.6388 54.1426 68.8932 59.3907 68.8932Z" fill="#F7BE23"></path><path d="M59.3907 93.9164C64.6388 93.9164 68.8932 89.662 68.8932 84.4139C68.8932 79.1658 64.6388 74.9114 59.3907 74.9114C54.1426 74.9114 49.8882 79.1658 49.8882 84.4139C49.8882 89.662 54.1426 93.9164 59.3907 93.9164Z" fill="#F7BE23"></path><path d="M84.4136 44.0284C89.6617 44.0284 93.9161 39.774 93.9161 34.5259C93.9161 29.2779 89.6617 25.0234 84.4136 25.0234C79.1655 25.0234 74.9111 29.2779 74.9111 34.5259C74.9111 39.774 79.1655 44.0284 84.4136 44.0284Z" fill="#F7BE23"></path><path d="M84.4136 68.8932C89.6617 68.8932 93.9161 64.6388 93.9161 59.3907C93.9161 54.1426 89.6617 49.8882 84.4136 49.8882C79.1655 49.8882 74.9111 54.1426 74.9111 59.3907C74.9111 64.6388 79.1655 68.8932 84.4136 68.8932Z" fill="#F7BE23"></path><path d="M84.4136 93.9164C89.6617 93.9164 93.9161 89.662 93.9161 84.4139C93.9161 79.1658 89.6617 74.9114 84.4136 74.9114C79.1655 74.9114 74.9111 79.1658 74.9111 84.4139C74.9111 89.662 79.1655 93.9164 84.4136 93.9164Z" fill="#F7BE23"></path><path d="M59.3907 118.781C64.6388 118.781 68.8932 114.527 68.8932 109.279C68.8932 104.031 64.6388 99.7764 59.3907 99.7764C54.1426 99.7764 49.8882 104.031 49.8882 109.279C49.8882 114.527 54.1426 118.781 59.3907 118.781Z" fill="#F7BE23"></path><path d="M109.279 118.781C114.527 118.781 118.781 114.527 118.781 109.279C118.781 104.031 114.527 99.7764 109.279 99.7764C104.031 99.7764 99.7764 104.031 99.7764 109.279C99.7764 114.527 104.031 118.781 109.279 118.781Z" fill="#111111"></path></svg> 