<?xml version="1.0" encoding="UTF-8" standalone="no"?>
<svg
   width="430"
   height="81.945999"
   viewBox="0 0 430 81.945999"
   version="1.1"
   id="svg16"
   sodipodi:docname="finanzen.net Logo 11.10.2022.svg"
   inkscape:version="1.1.1 (3bf5ae0d25, 2021-09-20)"
   xmlns:inkscape="http://www.inkscape.org/namespaces/inkscape"
   xmlns:sodipodi="http://sodipodi.sourceforge.net/DTD/sodipodi-0.dtd"
   xmlns="http://www.w3.org/2000/svg"
   xmlns:svg="http://www.w3.org/2000/svg">
  <sodipodi:namedview
     id="namedview18"
     pagecolor="#ffffff"
     bordercolor="#111111"
     borderopacity="1"
     inkscape:pageshadow="0"
     inkscape:pageopacity="0"
     inkscape:pagecheckerboard="1"
     showgrid="false"
     inkscape:zoom="1.387"
     inkscape:cx="246.93583"
     inkscape:cy="100.57678"
     inkscape:window-width="1600"
     inkscape:window-height="829"
     inkscape:window-x="-8"
     inkscape:window-y="-8"
     inkscape:window-maximized="1"
     inkscape:current-layer="svg16" />
  <defs
     id="defs3" />
  <rect
     style="fill:#093967;fill-opacity:1;stroke-width:233.92;stroke-linejoin:round;stroke-miterlimit:10;stroke-dasharray:32.8952, 43.86"
     id="rect42"
     width="430"
     height="81.945999"
     x="0"
     y="0" />
  <g
     id="g1380"
     transform="matrix(0.99999347,0,0,0.99999347,-9.9998368,-9.9972167)">
    <path
       fill="#ffffff"
       d="m 11.338,19.375 h 5.26 V 5.301 h -5.26 z m 0,-15.593 h 5.26 v -3.77 h -5.26 z M 2.152,19.375 h 5.26 V 9.213 h 2.656 V 5.3 H 7.305 C 7.225,4 7.592,3.81 8.867,3.81 H 10.2 V 0.011 c -0.797,-0.027 -1.567,0 -2.364,0 -2.125,0 -3.453,0.163 -4.597,1.33 C 2.231,2.371 2.098,3.917 2.152,5.3 H 0 v 3.913 h 2.152 z m 15.817,0 h 5.26 v -7.43 c 0,-2.252 1.195,-2.712 2.098,-2.712 1.541,0 1.727,1.139 1.727,2.766 v 7.376 h 5.26 V 9.721 c 0,-3.227 -2.258,-4.773 -4.728,-4.773 -2.1,0 -3.508,0.732 -4.49,2.142 H 23.043 V 5.3 h -5.074 z m 24.28,-5.017 c -0.08,1.464 -1.01,2.196 -2.204,2.196 -0.957,0 -1.648,-0.65 -1.648,-1.301 0,-0.95 0.612,-1.247 1.78,-1.519 0.718,-0.162 1.435,-0.352 2.072,-0.678 z m 5.048,-3.905 c 0,-2.712 0.053,-5.505 -6.535,-5.505 -3.268,0 -6.934,0.65 -7.093,4.61 h 4.888 c 0.026,-0.597 0.345,-1.437 1.966,-1.437 0.85,0 1.726,0.352 1.726,1.301 0,0.896 -0.717,1.112 -1.434,1.248 -2.684,0.515 -7.784,0.352 -7.784,4.8 0,2.956 2.205,4.257 4.862,4.257 1.7,0 3.32,-0.379 4.436,-1.681 h 0.053 c -0.026,0.38 0.053,0.95 0.186,1.33 h 4.729 z m 1.344,8.922 h 5.26 v -7.43 c 0,-2.252 1.195,-2.712 2.098,-2.712 1.541,0 1.727,1.139 1.727,2.766 v 7.376 h 5.26 V 9.721 c 0,-3.227 -2.258,-4.773 -4.729,-4.773 -2.099,0 -3.507,0.732 -4.49,2.142 H 53.714 V 5.3 h -5.073 z m 15.356,0 h 13.76 V 15.47 H 70.904 L 77.2,9.422 V 5.3 H 64.58 v 3.906 h 5.871 l -6.455,6.02 v 4.15 z m 18.888,-8.624 c 0.24,-1.518 1.143,-2.358 2.71,-2.358 1.354,0 2.311,1.057 2.311,2.358 h -5.02 z m 10.068,2.794 c 0,-5.478 -2.364,-8.597 -7.836,-8.597 -4.357,0 -7.279,3.336 -7.279,7.43 0,4.692 3.32,7.35 7.73,7.35 3.134,0 6.03,-1.411 7.094,-4.448 h -4.915 c -0.425,0.678 -1.356,1.003 -2.205,1.003 -1.647,0 -2.55,-1.138 -2.683,-2.738 z m 0.877,5.83 h 5.26 v -7.43 c 0,-2.252 1.196,-2.712 2.098,-2.712 1.541,0 1.727,1.139 1.727,2.766 v 7.376 h 5.034 V 9.721 c 0,-3.227 -2.031,-4.773 -4.503,-4.773 -2.098,0 -3.506,0.732 -4.489,2.142 H 98.904 V 5.3 H 93.83 Z M 120.041,5.139 h 1.708 V 7.6 h 0.053 c 0.624,-1.714 2.494,-2.877 4.472,-2.877 3.928,0 5.12,2.103 5.12,5.505 v 9.183 h -1.706 v -8.906 c 0,-2.462 -0.786,-4.316 -3.55,-4.316 -2.71,0 -4.336,2.103 -4.39,4.897 v 8.325 h -1.707 z m 23.845,6.14 c -0.081,-2.628 -1.68,-5.09 -4.443,-5.09 -2.792,0 -4.336,2.49 -4.607,5.09 z m -9.05,1.466 c 0.027,2.545 1.327,5.615 4.607,5.615 2.492,0 3.848,-1.494 4.39,-3.652 h 1.706 c -0.731,3.237 -2.574,5.118 -6.096,5.118 -4.444,0 -6.314,-3.485 -6.314,-7.551 0,-3.762 1.87,-7.552 6.314,-7.552 4.497,0 6.286,4.012 6.15,8.022 z M 149.82,5.139 h 2.846 v 1.465 h -2.845 v 9.626 c 0,1.134 0.161,1.798 1.38,1.88 0.489,0 0.977,-0.027 1.465,-0.082 v 1.493 c -0.516,0 -1.004,0.056 -1.518,0.056 -2.276,0 -3.062,-0.775 -3.035,-3.209 V 6.604 h -2.438 V 5.139 h 2.438 V 0.85 h 1.708 v 4.288 z"
       mask="none"
       id="path8"
       transform="matrix(2.6201159,0,0,2.6201159,25,25)"
       style="fill-rule:evenodd" />
    <path
       fill="#d70413"
       d="m 113.908,19.525 c 2.494,0 4.515,-2.064 4.515,-4.609 0,-2.546 -2.021,-4.61 -4.515,-4.61 -2.494,0 -4.515,2.064 -4.515,4.61 0,2.545 2.021,4.609 4.515,4.609"
       mask="none"
       id="path10"
       transform="matrix(2.6201159,0,0,2.6201159,25,25)"
       style="fill-rule:evenodd" />
    <path
       fill="#e42522"
       d="m 113.908,14.205 c 1.93,0 3.613,1.063 4.508,0.865 0.001,-0.052 0.007,-0.102 0.007,-0.154 0,-2.546 -2.021,-4.61 -4.515,-4.61 -2.494,0 -4.515,2.064 -4.515,4.61 0,0.052 0.005,0.102 0.007,0.154 0.894,0.199 2.577,-0.865 4.508,-0.865"
       mask="none"
       id="path12"
       transform="matrix(2.6201159,0,0,2.6201159,25,25)"
       style="fill-rule:evenodd" />
  </g>
</svg>
