<svg width="93" height="40" viewBox="0 0 93 40" fill="none" xmlns="http://www.w3.org/2000/svg">
<path fill-rule="evenodd" clip-rule="evenodd" d="M92.9664 39.9999C92.9664 39.7916 92.9757 6.84529 92.9757 6.84529C92.9757 2.5244 90.3686 0.617188 86.7406 0.617188H80.0997V39.9999H85.0227V5.19716H86.2547C87.4297 5.19716 88.0823 5.85032 88.0823 7.02867C88.0823 7.02867 88.0823 39.6214 88.0823 39.9999H92.9664Z" fill="#262626"/>
<path fill-rule="evenodd" clip-rule="evenodd" d="M44.4068 40C44.4068 39.922 44.413 6.20469 44.413 6.20469C44.413 2.38168 42.2062 0 38.0112 0C33.6808 0 31.6102 2.33486 31.6102 6.20469C31.6102 6.20469 31.6102 39.9251 31.6157 40H36.4569C36.4569 39.9844 36.4569 6.34828 36.4569 6.34828C36.4569 5.19021 37.002 4.57997 38.0144 4.57997C39.1201 4.57997 39.5718 5.2823 39.5718 6.34828C39.5718 6.34828 39.5718 39.9821 39.5718 40H44.4068Z" fill="#262626"/>
<path fill-rule="evenodd" clip-rule="evenodd" d="M21.9035 20.5805H20.6077V5.33684H22.1363C23.1884 5.33684 23.6844 5.96113 23.6844 7.10515V18.7825C23.6844 20.117 22.8621 20.5805 21.9035 20.5805ZM26.0306 22.9723C27.465 22.4448 28.5638 21.2938 28.5638 18.3284V6.72823C28.5638 2.79831 26.2736 0.617188 22.0226 0.617188H15.7299V39.9999H20.6061V25.2057H21.8895C23.2483 25.3454 23.7311 25.8925 23.7311 27.7646V39.9999H28.6144C28.6097 39.8251 28.6074 27.3393 28.6074 27.3393C28.6074 24.4503 27.3389 23.5162 26.0275 22.9723H26.0306Z" fill="#262626"/>
<path d="M6.44773 20.6071H12.7358V40H8.04876C8.04876 39.9844 8.04876 24.7298 8.04876 24.7298H6.44773V20.6071ZM6.44773 0.139648C10.6216 0.139648 12.7062 2.52211 12.7062 6.34512V16.0615H8.04954V6.44188C8.04954 5.37747 7.60022 4.71962 6.49211 4.71962C5.46344 4.71962 4.93469 5.33064 4.93469 6.44188C4.93469 6.44188 4.93469 39.9844 4.93469 39.9976H0.00545098C0 39.925 0 6.34512 0 6.34512C0 2.47528 2.14691 0.139648 6.44461 0.139648H6.44773Z" fill="#262626"/>
<path fill-rule="evenodd" clip-rule="evenodd" d="M55.3663 0.617188H60.1125V39.4927C60.1125 39.5379 60.1125 39.957 60.1125 39.9999H55.3663C55.3663 39.9952 55.3663 39.9695 55.3663 39.9648V0.617188ZM47.4094 0.617188H52.2374V39.9999H47.4094C47.4094 39.957 47.4094 39.5379 47.4094 39.4927V0.617188Z" fill="#262626"/>
<path fill-rule="evenodd" clip-rule="evenodd" d="M67.8296 39.9999H63.1067V0.617188H67.7174C67.7174 0.617188 72.3056 21.0035 72.3702 21.3539C72.3617 21.158 72.3811 0.617188 72.3811 0.617188H77.104V39.9999H71.5752C71.5752 39.9999 67.8965 22.8568 67.8257 22.4916C67.8366 22.6828 67.8296 39.9999 67.8296 39.9999Z" fill="#262626"/>
</svg>
