<?xml version="1.0" encoding="utf-8"?>
<!-- Generator: Adobe Illustrator 23.1.0, SVG Export Plug-In . SVG Version: 6.00 Build 0)  -->
<svg version="1.1" id="Layer_1" xmlns="http://www.w3.org/2000/svg" xmlns:xlink="http://www.w3.org/1999/xlink" x="0px" y="0px"
	 viewBox="0 0 284.8 27.9" style="enable-background:new 0 0 284.8 27.9;" xml:space="preserve">
<style type="text/css">
	.st0{fill:#FFFFFF;}
</style>
<g>
	<path class="st0" d="M8,25.8H1.8l5-23.4H13L8,25.8z"/>
	<path class="st0" d="M20.6,9.3l-0.7,3h0.3c1.3-2.6,3-3.3,5.6-3.3c3.6,0,4.8,1.7,4.1,5.3l-2.4,11.5H22l2.2-10.1
		c0.3-1.5,0-2.4-1.7-2.4c-2.4,0-3.2,1.4-3.6,3.4L17,25.8h-5.3l3.4-16.4H20.6z"/>
	<path class="st0" d="M41.9,25.8h-8.3L32.5,9.3h5.6l0.3,12.9h0.1l5.5-12.9h5.6L41.9,25.8z"/>
	<path class="st0" d="M63.8,20.2c-0.5,2.4-1.6,3.8-3.2,4.7c-1.6,0.7-3.6,1-6,1c-6.4,0-7.5-2.3-6.3-8.4c1.3-6.3,3.3-8.4,9.8-8.4
		c6.1,0,7.5,1.7,6.1,8.4l-0.1,0.9H53.6c-0.5,2.8-0.3,3.7,1.9,3.7c1.7,0,2.7-0.1,3.2-1.9L63.8,20.2L63.8,20.2z M59.5,15.5
		c0.5-2.4-0.3-2.6-2.2-2.6c-1.9,0-2.6,0.4-3.2,2.6H59.5z"/>
	<path class="st0" d="M77.3,13.9c0.1-1.4-1-1.4-1.9-1.4c-2.8,0-2.8,0.3-3.2,1.3c-0.1,0.9-0.3,1.4,2.6,1.4c5.6,0.1,8,0.4,7,5
		c-1,4.8-4.8,5.6-9.2,5.6s-8,0.1-6.9-5.3h5.4c-0.4,1.9,1,1.9,2.3,1.9c2.4,0,2.8-0.1,3.2-1.4c0.3-1.5-0.5-1.5-2.4-1.5
		c-6.9,0-7.7-1.5-7-4.9c1.1-5.3,4.6-5.4,9.2-5.4c3,0,7.3,0,6.4,4l-0.1,0.7L77.3,13.9L77.3,13.9L77.3,13.9L77.3,13.9z"/>
	<path class="st0" d="M98.2,13.2h-6.1l-1.6,7.3c-0.1,1-0.1,1.4,0.9,1.4c1.4,0,1.6-1,1.9-2.1l0.3-0.9h4.3l-0.3,1.4
		c-1,4.4-2.8,5.5-7.1,5.5c-3.4,0-6.1-0.4-5.3-4.6l1.7-8.1h-2l0.9-4h2l0.7-3.4H94L93.3,9h6.1L98.2,13.2z"/>
	<path class="st0" d="M116,17.5c-1.4,6.7-3.2,8.4-10,8.4c-6.7,0-7.9-1.9-6.4-8.4c1.4-6.7,3.2-8.4,10-8.4
		C116.4,9,117.4,10.6,116,17.5z M105,17.5c-0.7,3.6-0.5,4.3,2,4.3c2.4,0,2.8-0.7,3.7-4.3c0.7-3.6,0.7-4.3-1.9-4.3
		C106.3,13.2,105.7,13.9,105,17.5z"/>
	<path class="st0" d="M127.8,15.6c0.3-1.1,0.5-2.4-0.9-2.4c-1.6,0-2.3,1.3-2.6,2.6l-2,10h-5.4l3.4-16.4h5.1l-0.5,2.4h0.3
		c1.1-1.9,2.7-2.6,4.7-2.6c3.7,0,3.4,3,2.7,6l-0.3,1.3h-4.9L127.8,15.6z"/>
	<path class="st0" d="M144.6,13.9c0.1-1.4-1-1.4-1.9-1.4c-2.8,0-2.8,0.3-3.2,1.3c-0.1,0.9-0.3,1.4,2.6,1.4c5.6,0.1,8,0.4,7,5
		c-1,4.8-4.9,5.6-9.2,5.6s-8,0.1-6.9-5.3h5.4c-0.4,1.9,1,1.9,2.3,1.9c2.4,0,2.8-0.1,3.2-1.4c0.3-1.5-0.5-1.5-2.4-1.5
		c-6.9,0-7.7-1.5-7-4.9c1.1-5.3,4.6-5.4,9.2-5.4c3,0,7.3,0,6.4,4l-0.1,0.7L144.6,13.9L144.6,13.9L144.6,13.9L144.6,13.9z"/>
	<path class="st0" d="M166,2.1c5.9,0,7.1,2,6,7.9l-1.7,8.3c-1.1,5.5-3.6,7.5-9.3,7.5h-3.3c-5.6,0-7.1-2-6-7.5l1.7-8.3
		c1.3-5.9,3.4-7.9,9.3-7.9C162.7,2.1,166,2.1,166,2.1z M162.3,4.5c-4,0-5.1,1-6.1,5.6l-1.7,8.3c-1,4.7,0.4,5.1,3.8,5.3h3.2
		c3.4,0,5.1-0.5,6.1-5.3l1.7-8.3c1-4.6,0.1-5.6-3.8-5.6L162.3,4.5z"/>
	<path class="st0" d="M176.9,2.3h2.4l-1.9,9.2l0,0c1.3-2.1,3.8-2.3,5.7-2.3c5.7,0,5.7,3.3,4.6,8.4c-1.1,5.3-2.6,8.4-8.1,8.4
		c-2.3,0-4.3-0.4-4.9-2.2h-0.1l-0.4,2h-2.4L176.9,2.3z M182.2,11c-4.3,0-5,1.7-6,6.4c-1.1,5.3-0.4,6.4,3.3,6.4
		c4.4,0,4.9-1.9,5.9-6.4C186.4,12.2,186.2,11,182.2,11z"/>
	<path class="st0" d="M205.4,13.6h-2.6L203,13c0.3-1.7-0.9-1.7-3.4-1.7c-3.2,0-4.6,0-5,2c-0.5,3,0.3,2.7,2.7,2.8
		c4.1,0.3,8.1-0.4,7,5c-1,4.6-4.1,4.8-7.9,4.8c-3.6,0-7.3-0.1-6.4-3.8l0.3-1.5h2.6l-0.3,1.3c-0.3,1.5,0.5,1.9,4.3,1.9
		c1.7,0,4.1,0.4,4.9-2.6s-0.7-2.4-3.7-2.7c-3.6-0.3-7.1,0.1-6.1-4.6s3.7-4.9,8.1-4.9c2.8,0,6.4,0.1,5.6,3.8L205.4,13.6z"/>
	<path class="st0" d="M221.6,20.7l-0.1,0.5c-0.9,4.3-4.3,4.6-8,4.6c-6.4,0-6.9-2.2-5.6-8.4c1.4-6.9,3.3-8.4,9.2-8.4
		c5.3,0,6.7,1.3,5.4,7.3l-0.3,1.7h-11.9c-1.1,5.1-0.9,5.9,3.6,5.9c3.4,0,4.6-0.3,5-2.6l0.1-0.5L221.6,20.7L221.6,20.7z M220,16
		c0.9-4.7,0.4-5-3.4-5c-4.4,0-4.9,1.1-5.9,5H220z"/>
	<path class="st0" d="M229.9,9.3l-0.5,2l0,0c1.3-1.9,3.3-2.3,5.1-2.3c3.2,0,4.3,1.5,3.6,4.6l-0.3,1.1h-2.3l0.3-1.1
		c0.4-2-0.1-2.7-2.1-2.7c-3,0-4.4,1.4-4.9,4.4l-2.1,10.2h-2.4l3.4-16.4h2.3L229.9,9.3L229.9,9.3z"/>
	<path class="st0" d="M245.7,25.8h-3.4l-2-16.4h2.4l1.6,14.5l0,0l7.7-14.5h2.7L245.7,25.8z"/>
	<path class="st0" d="M268.1,20.7l-0.1,0.5c-0.9,4.3-4.3,4.6-8,4.6c-6.4,0-6.9-2.2-5.6-8.4c1.4-6.9,3.3-8.4,9.2-8.4
		c5.3,0,6.7,1.3,5.5,7.3l-0.3,1.7h-11.9c-1.1,5.1-0.9,5.9,3.6,5.9c3.4,0,4.6-0.3,5-2.6l0.1-0.5L268.1,20.7L268.1,20.7z M266.6,16
		c0.9-4.7,0.4-5-3.4-5c-4.4,0-4.9,1.1-5.9,5H266.6z"/>
	<path class="st0" d="M276.4,9.3l-0.5,2l0,0c1.3-1.9,3.3-2.3,5.1-2.3c3.2,0,4.3,1.5,3.6,4.6l-0.3,1.1H282l0.3-1.1
		c0.4-2-0.1-2.7-2.1-2.7c-3,0-4.4,1.4-4.9,4.4l-2.1,10.2h-2.6L274,9.1h2.4V9.3z"/>
</g>
</svg>
