 <svg xmlns="http://www.w3.org/2000/svg" fill="none" viewBox="0 0 201 22">
      <path
        fill="#F0B90B"
        d="M4.839 11.014l-2.42 2.48L0 11.014l2.42-2.481 2.419 2.48zm5.902-6.052l4.147 4.28 2.419-2.481-4.147-4.28L10.74 0 8.322 2.48 4.147 6.76l2.42 2.482 4.174-4.28zm8.32 3.57l-2.419 2.482 2.42 2.48 2.419-2.48-2.42-2.481zm-8.32 8.506l-4.148-4.252-2.446 2.48 4.148 4.253L10.714 22l2.42-2.48 4.173-4.254-2.42-2.48-4.146 4.252zm0-3.544l2.419-2.48-2.42-2.481-2.419 2.48 2.42 2.481zm25.601.246v-.027c0-1.609-.85-2.427-2.206-2.972.85-.49 1.541-1.254 1.541-2.617v-.027c0-1.909-1.488-3.135-3.881-3.135h-5.477v12.076h5.61c2.659 0 4.413-1.09 4.413-3.298zM33.1 8.587c0 .9-.718 1.282-1.861 1.282h-2.393V7.306h2.552c1.09 0 1.702.436 1.702 1.254v.027zm.664 4.826c0 .9-.69 1.308-1.834 1.308h-3.084v-2.644h3.004c1.33 0 1.914.49 1.914 1.308v.028zm8.003 3.625V4.962h-2.58v12.076h2.58zm13.93 0V4.962h-2.552v7.442l-5.53-7.442h-2.392v12.076h2.552v-7.66l5.716 7.688h2.206v-.028zm14.356 0L65.001 4.88h-2.393l-5.05 12.158h2.631l1.09-2.699h4.972l1.09 2.7h2.711zm-4.705-5.043H62.21l1.568-3.926 1.569 3.926zm17.04 5.043V4.962h-2.551v7.442l-5.53-7.442h-2.393v12.076h2.552v-7.66l5.716 7.688h2.207v-.028zm13.4-1.935l-1.649-1.718c-.93.873-1.754 1.418-3.083 1.418-2.02 0-3.403-1.718-3.403-3.79v-.027c0-2.072 1.435-3.762 3.403-3.762 1.17 0 2.1.518 3.004 1.363l1.648-1.962c-1.09-1.118-2.42-1.854-4.652-1.854-3.616 0-6.142 2.808-6.142 6.243v.027c0 3.462 2.58 6.215 6.035 6.215 2.26 0 3.616-.817 4.839-2.153zm11.033 1.935v-2.371h-6.381V12.13h5.557V9.76h-5.557V7.306h6.301V4.934h-8.88v12.077h8.96v.027z"
      ></path>
      <path
        fill="#FFFFFF"
        d="M122.888 4.97h-8.678v12.04h2.049v-4.902h5.879v-1.927h-5.879V6.896h6.629V4.969zM133.785 4.97h-8.645v12.04h8.728v-1.892h-6.679v-3.234h5.846V9.992h-5.846v-3.13h6.596V4.968zM144.943 4.97h-8.645v12.04h8.728v-1.892h-6.679v-3.234h5.846V9.992h-5.846v-3.13h6.596V4.968zM158 10.973c0-3.406-2.532-6.004-6.196-6.004h-4.348V17.01h4.348c3.664 0 6.196-2.631 6.196-6.037zm-2.149.034c0 2.374-1.599 4.077-4.047 4.077h-2.299V6.896h2.299c2.448 0 4.047 1.737 4.047 4.111z"
      ></path>
      <path
        fill="#FCD535"
        fillRule="evenodd"
        d="M172 3a3 3 0 00-3 3v2l-3 2.98 3 3.02v2a3 3 0 003 3h26a3 3 0 003-3V6a3 3 0 00-3-3h-26z"
        clipRule="evenodd"
      ></path>
      <path
        fill="#1E2329"
        d="M174.032 7.624V16h4.08c1.236 0 2.16-1.056 2.16-2.412 0-1.404-1.068-1.932-1.752-1.956v-.072c.684-.06 1.452-.516 1.452-1.776 0-1.308-.852-2.16-2.232-2.16h-3.708zm1.356 3.54V8.788h2.1c.66 0 1.056.36 1.056.996v.384c0 .636-.396.996-1.056.996h-2.1zm0 3.672v-2.544h2.328c.696 0 1.128.384 1.128 1.068v.408c0 .684-.432 1.068-1.128 1.068h-2.328zm8.906 1.308c1.164 0 2.076-.504 2.544-1.26l-.768-.756c-.36.576-.876.936-1.644.936-1.056 0-1.644-.684-1.644-1.644v-.204h4.284v-.492c0-1.728-.936-3.108-2.772-3.108-1.776 0-2.868 1.272-2.868 3.264 0 1.992 1.092 3.264 2.868 3.264zm0-5.508c.864 0 1.392.636 1.392 1.596v.12h-2.904v-.084c0-.96.612-1.632 1.512-1.632zM190.242 16h1.14v-1.068h-1.212v-4.104h1.308V9.76h-1.308V8.056h-1.176v1.092c0 .432-.144.612-.576.612h-.528v1.068h.972v3.816c0 .852.48 1.356 1.38 1.356zm7.227 0h.732v-1.068h-.66V11.8c0-1.392-.9-2.184-2.508-2.184-1.212 0-1.944.516-2.352 1.212l.78.708c.312-.492.756-.852 1.488-.852.876 0 1.284.444 1.284 1.2v.528h-1.128c-1.74 0-2.664.636-2.664 1.872 0 1.128.732 1.86 2.016 1.86.912 0 1.584-.408 1.824-1.188h.06c.084.612.444 1.044 1.128 1.044zm-2.64-.852c-.648 0-1.056-.288-1.056-.84v-.216c0-.54.444-.84 1.356-.84h1.104v.9c0 .612-.6.996-1.404.996z"
      ></path>
    </svg>