<?xml version="1.0" encoding="UTF-8"?> <svg xmlns="http://www.w3.org/2000/svg" xmlns:xlink="http://www.w3.org/1999/xlink" width="440px" height="111px" viewBox="0 0 440 111"><!-- Generator: Sketch 52.5 (67469) - http://www.bohemiancoding.com/sketch --><title>RamaonHealthcare-Logo-Blue</title><desc>Created with Sketch.</desc><defs><polygon id="path-1" points="0.639277273 0.235292593 40.5569591 0.235292593 40.5569591 52 0.639277273 52"></polygon></defs><g id="Page-1" stroke="none" stroke-width="1" fill="none" fill-rule="evenodd"><g id="Home" transform="translate(-292.000000, -137.000000)"><g id="RamaonHealthcare-Logo-Blue" transform="translate(292.000000, 137.000000)"><path d="M43.3336375,62.9374384 C42.5637208,63.2155951 42.041347,63.7448654 41.7606685,64.5291126 C41.4838884,65.3133599 41.3435491,66.5843813 41.3435491,68.3363819 L41.3435491,102.663618 C41.3435491,104.419482 41.4838884,105.68664 41.7606685,106.470887 C42.041347,107.255135 42.5637208,107.786337 43.3336375,108.062562 C44.1016049,108.338787 45.3237258,108.524224 47,108.615012 L47,110 C45.0449965,109.862853 42.0647369,109.793314 38.0611703,109.793314 C34.2895534,109.793314 31.3326836,109.862853 29.1905611,110 L29.1905611,108.615012 C30.8668353,108.524224 32.0889562,108.338787 32.8569237,108.062562 C33.6268403,107.786337 34.1492141,107.255135 34.4298926,106.470887 C34.7086219,105.68664 34.847012,104.419482 34.847012,102.663618 L34.847012,86.0534159 L12.1510389,86.0534159 L12.1510389,102.663618 C12.1510389,104.419482 12.2894289,105.68664 12.5701074,106.470887 C12.8488367,107.255135 13.3731597,107.786337 14.1411272,108.062562 C14.9090947,108.338787 16.1312155,108.524224 17.8074897,108.615012 L17.8074897,110 C15.6653672,109.862853 12.7084975,109.793314 8.93882968,109.793314 C4.93331398,109.793314 1.95500353,109.862853 0,110 L0,108.615012 C1.67627421,108.524224 2.89839506,108.338787 3.66441339,108.062562 C4.43433003,107.786337 4.95865301,107.255135 5.23738232,106.470887 C5.51611164,105.68664 5.65645088,104.419482 5.65645088,102.663618 L5.65645088,68.3363819 C5.65645088,66.5843813 5.51611164,65.3133599 5.23738232,64.5291126 C4.95865301,63.7448654 4.43433003,63.2155951 3.66441339,62.9374384 C2.89839506,62.6592817 1.67627421,62.4777073 0,62.3849884 L0,61 C1.95500353,61.1371467 4.93331398,61.2066859 8.93882968,61.2066859 C12.6636669,61.2066859 15.6185875,61.1371467 17.8074897,61 L17.8074897,62.3849884 C16.1312155,62.4777073 14.9090947,62.6592817 14.1411272,62.9374384 C13.3731597,63.2155951 12.8488367,63.7448654 12.5701074,64.5291126 C12.2894289,65.3133599 12.1510389,66.5843813 12.1510389,68.3363819 L12.1510389,84.6703591 L34.847012,84.6703591 L34.847012,68.3363819 C34.847012,66.5843813 34.7086219,65.3133599 34.4298926,64.5291126 C34.1492141,63.7448654 33.6268403,63.2155951 32.8569237,62.9374384 C32.0889562,62.6592817 30.8668353,62.4777073 29.1905611,62.3849884 L29.1905611,61 C31.3326836,61.1371467 34.2895534,61.2066859 38.0611703,61.2066859 C42.0647369,61.2066859 45.0449965,61.1371467 47,61 L47,62.3849884 C45.3237258,62.4777073 44.1016049,62.6592817 43.3336375,62.9374384" id="Fill-1" fill="#044DA1"></path><path d="M89,110 C85.8541622,109.862853 80.5614111,109.793314 73.1159389,109.793314 C64.2379006,109.793314 57.5319424,109.862853 53,110 L53,108.615012 C54.6668101,108.522293 55.8806195,108.338787 56.6414283,108.062562 C57.4061088,107.786337 57.9249301,107.255135 58.2036997,106.470887 C58.4785975,105.68664 58.6199183,104.41755 58.6199183,102.663618 L58.6199183,68.3363819 C58.6199183,66.5824496 58.4785975,65.3133599 58.2036997,64.5291126 C57.9249301,63.7448654 57.4061088,63.2136634 56.6414283,62.9374384 C55.8806195,62.6592817 54.6668101,62.4757756 53,62.3849884 L53,61 C57.5319424,61.1371467 64.2379006,61.2066859 73.1159389,61.2066859 C79.9148204,61.2066859 84.7448914,61.1371467 87.6119596,61 C87.2886642,64.0442701 87.1260486,66.7678874 87.1260486,69.165057 C87.1260486,70.9653487 87.195741,72.3966965 87.3351258,73.4571688 L85.7380082,73.4571688 C85.4147128,70.4573264 85.0004302,68.2320732 84.4912884,66.7775456 C83.9821467,65.3249497 83.1264788,64.2644775 81.9262207,63.5961288 C80.7220908,62.9258485 78.894601,62.5916742 76.4456872,62.5916742 L70.6883201,62.5916742 C69.0234459,62.5916742 67.8096365,62.717231 67.0468918,62.9702763 C66.2841471,63.2252533 65.76339,63.7448654 65.4865562,64.5291126 C65.2077866,65.3133599 65.0703377,66.5824496 65.0703377,68.3363819 L65.0703377,84.6703591 L69.6468058,84.6703591 C71.2652183,84.6703591 72.513874,84.2878937 73.3927726,83.5268262 C74.2716713,82.7657587 74.860185,81.8675444 75.1621854,80.8263886 C75.4622499,79.7890961 75.7042375,78.4871684 75.8920198,76.9167422 L76.0991611,75.5336855 L77.692407,75.5336855 C77.5549581,77.4711239 77.4852656,79.6403595 77.4852656,82.0375291 L77.4852656,85.3618875 C77.4852656,87.7146292 77.6246505,90.9906966 77.9034201,95.1881578 L76.3063024,95.1881578 C76.2598408,94.867505 76.1223919,93.7471518 75.8920198,91.8328931 C75.6577759,89.9186344 75.0228006,88.4756968 73.9832222,87.5060117 C72.9417079,86.5382584 71.4955904,86.0534159 69.6468058,86.0534159 L65.0703377,86.0534159 L65.0703377,102.663618 C65.0703377,104.41755 65.2077866,105.68664 65.4865562,106.470887 C65.76339,107.255135 66.2841471,107.774747 67.0468918,108.027792 C67.8096365,108.280837 69.0234459,108.408326 70.6883201,108.408326 L75.7506991,108.408326 C78.6177673,108.408326 80.8033986,108.027792 82.3056571,107.266724 C83.8079157,106.503725 84.907507,105.282927 85.6005593,103.598534 C86.2955474,101.91414 86.8027533,99.4339102 87.1260486,96.1578429 L88.7212304,96.1578429 C88.5837815,97.4037529 88.5140891,99.0649663 88.5140891,101.141483 C88.5140891,103.77045 88.6747688,106.725864 89,110" id="Fill-3" fill="#044DA1"></path><path d="M119.854725,89.8038909 L112.014541,68.836654 L104.037632,89.8038909 L119.854725,89.8038909 Z M137,108.598661 L137,110 C135.132731,109.86104 132.636529,109.790582 129.511394,109.790582 C125.499501,109.790582 122.513043,109.86104 120.553974,110 L120.553974,108.598661 C122.327488,108.504717 123.599028,108.281599 124.368592,107.933221 C125.138157,107.580929 125.520986,106.938975 125.520986,106.003445 C125.520986,105.208831 125.24363,104.110855 124.683059,102.707559 L120.413343,91.2071868 L103.477061,91.2071868 L100.607795,98.6405449 C99.6741612,101.165303 99.2092973,103.081379 99.2092973,104.390731 C99.2092973,105.839042 99.7112722,106.892003 100.713269,107.5457 C101.717219,108.201354 103.244629,108.551689 105.297452,108.598661 L105.297452,110 C102.639134,109.86104 99.9554234,109.790582 97.2502279,109.790582 C95.1505274,109.790582 93.4004514,109.86104 92,110 L92,108.598661 C94.3340857,108.036952 96.1759625,106.003445 97.5295369,102.496184 L113.975563,60 L115.094752,60 L132.171665,104.110855 C133.290855,107.009434 134.900299,108.504717 137,108.598661 Z" id="Fill-5" fill="#044DA1"></path><path d="M155.68832,62.3849884 C154.023446,62.4777073 152.809636,62.6612134 152.046892,62.9374384 C151.284147,63.2155951 150.76339,63.7448654 150.48462,64.5291126 C150.207787,65.3152915 150.070338,66.5843813 150.070338,68.3363819 L150.070338,102.66555 C150.070338,104.419482 150.207787,105.68664 150.48462,106.470887 C150.76339,107.255135 151.284147,107.774747 152.046892,108.027792 C152.809636,108.282769 154.023446,108.408326 155.68832,108.408326 L160.750699,108.408326 C163.617767,108.408326 165.803399,108.004612 167.305657,107.197185 C168.807916,106.389758 169.907507,105.085899 170.600559,103.287539 C171.295547,101.487247 171.802753,98.8833918 172.126049,95.4663145 L173.72123,95.4663145 C173.583781,96.8976623 173.514089,98.7887413 173.514089,101.141483 C173.514089,103.772381 173.674769,106.725864 174,110 C170.854162,109.862853 165.561411,109.793314 158.115939,109.793314 C149.237901,109.793314 142.531942,109.862853 138,110 L138,108.616943 C139.66681,108.524224 140.880619,108.338787 141.641428,108.062562 C142.406109,107.786337 142.92493,107.255135 143.2037,106.470887 C143.478598,105.68664 143.619918,104.419482 143.619918,102.66555 L143.619918,68.3363819 C143.619918,66.5843813 143.478598,65.3152915 143.2037,64.5291126 C142.92493,63.7448654 142.406109,63.2155951 141.641428,62.9374384 C140.880619,62.6612134 139.66681,62.4777073 138,62.3849884 L138,61 C139.941708,61.1371467 142.901699,61.2086175 146.878038,61.2086175 C150.577544,61.2086175 153.514304,61.1371467 155.68832,61 L155.68832,62.3849884 Z" id="Fill-7" fill="#044DA1"></path><path d="M211.514723,69.858517 C211.514723,72.1648993 211.584325,74.0579099 211.721594,75.5336855 L210.130428,75.5336855 C209.761154,71.9813931 209.299078,69.3389049 208.7442,67.610084 C208.189322,65.8773998 207.220702,64.6102417 205.834474,63.8028147 C204.450178,62.9953877 202.325402,62.5916742 199.462076,62.5916742 L195.720999,62.5916742 L195.720999,101.97209 C195.720999,103.909528 195.906603,105.317696 196.275877,106.194662 C196.645152,107.071628 197.290898,107.670438 198.215051,107.993022 C199.139203,108.315607 200.6395,108.524224 202.717876,108.615012 L202.717876,110 C200.316627,109.862853 196.921624,109.793314 192.534801,109.793314 C187.915973,109.793314 184.497769,109.862853 182.282124,110 L182.282124,108.615012 C184.3605,108.524224 185.860797,108.315607 186.784949,107.993022 C187.709102,107.670438 188.354848,107.071628 188.726056,106.194662 C189.093397,105.317696 189.279001,103.909528 189.279001,101.97209 L189.279001,62.5916742 L185.537924,62.5916742 C182.674598,62.5916742 180.549822,62.9953877 179.165526,63.8028147 C177.781231,64.6102417 176.810678,65.8773998 176.2558,67.610084 C175.702855,69.3389049 175.238846,71.9813931 174.871505,75.5336855 L173.278406,75.5336855 C173.415675,74.0579099 173.485277,72.1648993 173.485277,69.858517 C173.485277,67.2295502 173.322873,64.2760673 173,61 C176.833879,61.1371467 183.345479,61.2066859 192.534801,61.2066859 C201.677722,61.2066859 208.168055,61.1371467 212,61 C211.677127,64.2760673 211.514723,67.2295502 211.514723,69.858517" id="Fill-9" fill="#044DA1"></path><path d="M260.333637,62.9374384 C259.563721,63.2155951 259.041347,63.7448654 258.760669,64.5291126 C258.483888,65.3133599 258.343549,66.5843813 258.343549,68.3363819 L258.343549,102.663618 C258.343549,104.419482 258.483888,105.68664 258.760669,106.470887 C259.041347,107.255135 259.563721,107.786337 260.333637,108.062562 C261.101605,108.338787 262.323726,108.524224 264,108.615012 L264,110 C262.044996,109.862853 259.064737,109.793314 255.06117,109.793314 C251.289553,109.793314 248.332684,109.862853 246.190561,110 L246.190561,108.615012 C247.866835,108.524224 249.088956,108.338787 249.856924,108.062562 C250.62684,107.786337 251.149214,107.255135 251.429893,106.470887 C251.708622,105.68664 251.847012,104.419482 251.847012,102.663618 L251.847012,86.0534159 L229.151039,86.0534159 L229.151039,102.663618 C229.151039,104.419482 229.289429,105.68664 229.570107,106.470887 C229.848837,107.255135 230.37316,107.786337 231.141127,108.062562 C231.909095,108.338787 233.131216,108.524224 234.80749,108.615012 L234.80749,110 C232.665367,109.862853 229.708497,109.793314 225.93883,109.793314 C221.933314,109.793314 218.955004,109.862853 217,110 L217,108.615012 C218.676274,108.524224 219.898395,108.338787 220.664413,108.062562 C221.43433,107.786337 221.958653,107.255135 222.237382,106.470887 C222.516112,105.68664 222.656451,104.419482 222.656451,102.663618 L222.656451,68.3363819 C222.656451,66.5843813 222.516112,65.3133599 222.237382,64.5291126 C221.958653,63.7448654 221.43433,63.2155951 220.664413,62.9374384 C219.898395,62.6592817 218.676274,62.4777073 217,62.3849884 L217,61 C218.955004,61.1371467 221.933314,61.2066859 225.93883,61.2066859 C229.663667,61.2066859 232.618587,61.1371467 234.80749,61 L234.80749,62.3849884 C233.131216,62.4777073 231.909095,62.6592817 231.141127,62.9374384 C230.37316,63.2155951 229.848837,63.7448654 229.570107,64.5291126 C229.289429,65.3133599 229.151039,66.5843813 229.151039,68.3363819 L229.151039,84.6703591 L251.847012,84.6703591 L251.847012,68.3363819 C251.847012,66.5843813 251.708622,65.3133599 251.429893,64.5291126 C251.149214,63.7448654 250.62684,63.2155951 249.856924,62.9374384 C249.088956,62.6592817 247.866835,62.4777073 246.190561,62.3849884 L246.190561,61 C248.332684,61.1371467 251.289553,61.2066859 255.06117,61.2066859 C259.064737,61.2066859 262.044996,61.1371467 264,61 L264,62.3849884 C262.323726,62.4777073 261.101605,62.6592817 260.333637,62.9374384" id="Fill-11" fill="#044DA1"></path><g id="Group-15" transform="translate(269.000000, 59.000000)"><mask id="mask-2" fill="white"><use xlink:href="#path-1"></use></mask><g id="Clip-14"></g><path d="M30.0512773,1.43073704 C32.0116864,2.2277 33.9251864,3.35247778 35.7937318,4.80703333 C36.3077773,5.22907037 36.7514591,5.43910741 37.1247773,5.43910741 C38.05905,5.43910741 38.6649591,4.03166296 38.9464136,1.2207 L40.5569591,1.2207 C40.3693227,4.26721852 40.2755045,9.65947778 40.2755045,17.3955148 L38.6649591,17.3955148 C38.1528682,14.3489963 37.6837773,12.1563667 37.26355,10.8195889 C36.8452773,9.48477407 36.1435955,8.20688519 35.1624136,6.98592222 C33.7629591,5.15644074 31.9765045,3.78629259 29.8069591,2.87155185 C27.6354591,1.95877407 25.28805,1.5014037 22.7666864,1.5014037 C19.7332318,1.5014037 17.0828682,2.51036667 14.8195045,4.52436667 C12.5561409,6.54229259 10.7931409,9.41214444 9.53245909,13.1417741 C8.27177727,16.8674778 7.64241364,21.2409593 7.64241364,26.2563296 C7.64241364,31.3698481 8.31868636,35.7511815 9.67123182,39.4101444 C11.0276864,43.0671444 12.9060045,45.844737 15.3100955,47.7448852 C17.7141864,49.6450333 20.4329591,50.5931444 23.4683682,50.5931444 C25.8020955,50.5931444 28.0654591,50.1475519 30.2604136,49.2563667 C32.4553682,48.3651815 34.1831864,47.0284037 35.4438682,45.2460333 C36.3761864,43.9347741 37.0544136,42.5292926 37.4746409,41.0276259 C37.8948682,39.5279222 38.2916409,37.2292926 38.6649591,34.135663 L40.2755045,34.135663 C40.2755045,42.2014778 40.3693227,47.8273296 40.5569591,51.0151815 L38.9464136,51.0151815 C38.8056864,49.5135148 38.6063227,48.4476259 38.3502773,47.8155519 C38.0922773,47.1815148 37.7306864,46.8654778 37.26355,46.8654778 C36.8902318,46.8654778 36.3996409,47.0519593 35.7937318,47.4288481 C33.6925955,48.9285519 31.6852773,50.0651074 29.7698227,50.8385148 C27.8563227,51.6119222 25.5440955,52.0005889 22.8390045,52.0005889 C18.4021864,52.0005889 14.51655,50.9916259 11.1781864,48.975663 C7.83982273,46.9597 5.25005,44.0407741 3.40495909,40.2188852 C1.55986818,36.3969963 0.639277273,31.8370333 0.639277273,26.5389963 C0.639277273,21.3822926 1.58527727,16.8105519 3.47336818,12.825737 C5.36536818,8.83895926 8.00400455,5.74532963 11.3873227,3.54092222 C14.77455,1.33651481 18.6113227,0.235292593 22.9093682,0.235292593 C25.7082773,0.235292593 28.0908682,0.633774074 30.0512773,1.43073704" id="Fill-13" fill="#044DA1" mask="url(#mask-2)"></path></g><path d="M340.854725,89.8038909 L333.014541,68.836654 L325.037632,89.8038909 L340.854725,89.8038909 Z M358,108.598661 L358,110 C356.132731,109.86104 353.636529,109.790582 350.511394,109.790582 C346.499501,109.790582 343.513043,109.86104 341.553974,110 L341.553974,108.598661 C343.327488,108.504717 344.599028,108.281599 345.368592,107.933221 C346.138157,107.580929 346.520986,106.938975 346.520986,106.003445 C346.520986,105.208831 346.24363,104.110855 345.683059,102.707559 L341.413343,91.2071868 L324.477061,91.2071868 L321.607795,98.6405449 C320.674161,101.165303 320.209297,103.081379 320.209297,104.390731 C320.209297,105.839042 320.711272,106.892003 321.713269,107.5457 C322.717219,108.201354 324.244629,108.551689 326.297452,108.598661 L326.297452,110 C323.639134,109.86104 320.955423,109.790582 318.250228,109.790582 C316.150527,109.790582 314.400451,109.86104 313,110 L313,108.598661 C315.334086,108.036952 317.175962,106.003445 318.529537,102.496184 L334.975563,60 L336.094752,60 L353.171665,104.110855 C354.290855,107.009434 355.900299,108.504717 358,108.598661 Z" id="Fill-16" fill="#044DA1"></path><path d="M373.020684,62.8690324 C372.30023,63.1937454 371.803098,63.7697244 371.523461,64.600835 C371.245766,65.4319456 371.10789,66.6786115 371.10789,68.3408327 L371.10789,85.3785999 L375.768505,85.3785999 C380.361153,85.3785999 383.514835,84.361939 385.231495,82.3286173 C386.948155,80.2991612 387.804543,77.4830492 387.804543,73.8802814 C387.804543,70.095829 386.899607,67.2333295 385.093619,65.2947157 C383.283747,63.3541691 380.337849,62.3858286 376.255927,62.3858286 C374.818904,62.3858286 373.739195,62.5481851 373.020684,62.8690324 Z M402,106.568054 C400.931942,108.1375 399.865827,109.268197 398.797769,109.960145 C397.731653,110.654026 396.317933,111 394.554667,111 C392.651583,111 391.088335,110.445282 389.859098,109.337779 C388.627919,108.230276 387.711331,106.291662 387.111277,103.520005 L385.579099,96.5947273 C385.02371,94.1961034 384.501332,92.348332 384.01391,91.0552785 C383.526487,89.7641579 382.796324,88.7243032 381.821479,87.9395802 C380.846633,87.1529243 379.479519,86.7605628 377.716253,86.7605628 L371.10789,86.7605628 L371.10789,102.690827 C371.10789,104.445823 371.245766,105.71375 371.523461,106.498473 C371.803098,107.283196 372.325475,107.81472 373.090593,108.091113 C373.855711,108.367506 375.073296,108.553056 376.74335,108.645831 L376.74335,110.029727 C374.607235,109.892497 371.66328,109.822915 367.905659,109.822915 C363.916949,109.822915 360.947749,109.892497 359,110.029727 L359,108.645831 C360.671996,108.553056 361.889581,108.367506 362.652757,108.091113 C363.419817,107.81472 363.940252,107.283196 364.219889,106.498473 C364.495642,105.71375 364.637402,104.445823 364.637402,102.690827 L364.637402,68.3408327 C364.637402,66.5877691 364.495642,65.3179095 364.219889,64.5312536 C363.940252,63.7465306 363.419817,63.2169392 362.652757,62.9386138 C361.889581,62.6622212 360.671996,62.4786037 359,62.3858286 L359,61 C360.947749,61.1372299 363.77713,61.2087441 367.488145,61.2087441 L375.003387,61.1372299 C375.88502,61.0927751 376.881227,61.0676485 377.99589,61.0676485 C383.375017,61.0676485 387.515197,62.1886814 390.414488,64.4288144 C393.313779,66.6689474 394.762453,69.5643048 394.762453,73.1187522 C394.762453,74.9182033 394.33523,76.7331169 393.4769,78.5557617 C392.61857,80.3803394 391.181547,82.017434 389.163889,83.4728439 C387.144289,84.9263211 384.511042,85.9081913 381.266089,86.4165217 L382.101115,86.5537516 C385.161586,87.0640148 387.38703,87.9859678 388.779389,89.3254088 C390.171747,90.6648498 391.191257,92.7870811 391.839859,95.6940353 L393.581764,102.760408 C394.043942,104.882639 394.531364,106.35931 395.04209,107.192354 C395.552816,108.021532 396.248024,108.437087 397.129657,108.437087 C397.916136,108.437087 398.578332,108.230276 399.112361,107.81472 C399.644447,107.399165 400.260037,106.730411 400.957187,105.806525 L402,106.568054 Z" id="Fill-18" fill="#044DA1"></path><path d="M440,110 C436.854162,109.862853 431.561411,109.793314 424.115939,109.793314 C415.237901,109.793314 408.531942,109.862853 404,110 L404,108.615012 C405.66681,108.522293 406.880619,108.338787 407.641428,108.062562 C408.406109,107.786337 408.92493,107.255135 409.2037,106.470887 C409.478598,105.68664 409.619918,104.41755 409.619918,102.663618 L409.619918,68.3363819 C409.619918,66.5824496 409.478598,65.3133599 409.2037,64.5291126 C408.92493,63.7448654 408.406109,63.2136634 407.641428,62.9374384 C406.880619,62.6592817 405.66681,62.4757756 404,62.3849884 L404,61 C408.531942,61.1371467 415.237901,61.2066859 424.115939,61.2066859 C430.91482,61.2066859 435.744891,61.1371467 438.61196,61 C438.288664,64.0442701 438.126049,66.7678874 438.126049,69.165057 C438.126049,70.9653487 438.195741,72.3966965 438.335126,73.4571688 L436.738008,73.4571688 C436.414713,70.4573264 436.00043,68.2320732 435.491288,66.7775456 C434.982147,65.3249497 434.126479,64.2644775 432.926221,63.5961288 C431.722091,62.9258485 429.894601,62.5916742 427.445687,62.5916742 L421.68832,62.5916742 C420.023446,62.5916742 418.809636,62.717231 418.046892,62.9702763 C417.284147,63.2252533 416.76339,63.7448654 416.486556,64.5291126 C416.207787,65.3133599 416.070338,66.5824496 416.070338,68.3363819 L416.070338,84.6703591 L420.646806,84.6703591 C422.265218,84.6703591 423.513874,84.2878937 424.392773,83.5268262 C425.271671,82.7657587 425.860185,81.8675444 426.162185,80.8263886 C426.46225,79.7890961 426.704237,78.4871684 426.89202,76.9167422 L427.099161,75.5336855 L428.692407,75.5336855 C428.554958,77.4711239 428.485266,79.6403595 428.485266,82.0375291 L428.485266,85.3618875 C428.485266,87.7146292 428.62465,90.9906966 428.90342,95.1881578 L427.306302,95.1881578 C427.259841,94.867505 427.122392,93.7471518 426.89202,91.8328931 C426.657776,89.9186344 426.022801,88.4756968 424.983222,87.5060117 C423.941708,86.5382584 422.49559,86.0534159 420.646806,86.0534159 L416.070338,86.0534159 L416.070338,102.663618 C416.070338,104.41755 416.207787,105.68664 416.486556,106.470887 C416.76339,107.255135 417.284147,107.774747 418.046892,108.027792 C418.809636,108.280837 420.023446,108.408326 421.68832,108.408326 L426.750699,108.408326 C429.617767,108.408326 431.803399,108.027792 433.305657,107.266724 C434.807916,106.503725 435.907507,105.282927 436.600559,103.598534 C437.295547,101.91414 437.802753,99.4339102 438.126049,96.1578429 L439.72123,96.1578429 C439.583781,97.4037529 439.514089,99.0649663 439.514089,101.141483 C439.514089,103.77045 439.674769,106.725864 440,110" id="Fill-20" fill="#044DA1"></path><path d="M81.9348893,8.87533065 L69.8431693,8.87533065 L69.8431693,25.0854514 L81.9348893,25.0854514 C86.9226996,25.0854514 90.5519548,21.8731455 90.5519548,16.9813686 C90.5519548,12.0876366 86.9226996,8.87533065 81.9348893,8.87533065 Z M78.6090382,32.9588269 L69.8431693,32.9588269 L69.8431693,52 L61,52 L61,1 L83.144641,1 C93.1202616,1 99.6192954,7.57515814 99.6192954,16.9813686 C99.6192954,26.0786659 93.72707,30.9723979 87.6802438,31.9675676 L100,52 L89.7944106,52 L78.6090382,32.9588269 Z" id="Fill-22" fill="#044DA1"></path><path d="M119.365468,34.3372053 L137.634532,34.3372053 L128.5,10.0210466 L119.365468,34.3372053 Z M140.147355,42.2125359 L116.854591,42.2125359 L113.123311,52 L103,52 L122.942981,1 L134.057019,1 L154,52 L143.876689,52 L140.147355,42.2125359 Z" id="Fill-24" fill="#044DA1"></path><polygon id="Fill-26" fill="#044DA1" points="203.051288 14.1522714 187.373441 52 183.548336 52 167.948712 14.1522714 167.948712 52 159 52 159 1 171.619327 1 185.462844 34.5659574 199.380673 1 212 1 212 52 203.051288 52"></polygon><path d="M234.365468,34.3372053 L252.634532,34.3372053 L243.5,10.0210466 L234.365468,34.3372053 Z M255.147355,42.2125359 L231.854591,42.2125359 L228.123311,52 L218,52 L237.942981,1 L249.057019,1 L269,52 L258.876689,52 L255.147355,42.2125359 Z" id="Fill-28" fill="#044DA1"></path><path d="M335,2.94395055 C335,1.93597619 335.865537,1.07199817 336.87728,1.07199817 L337.454305,1.07199817 C338.247714,1.07199817 338.824739,1.50398718 339.331585,2.1519707 L373.389696,45.3002785 L373.389696,2.80190011 C373.389696,1.79197985 374.185055,1 375.194848,1 C376.206591,1 377,1.79197985 377,2.80190011 L377,50.3420962 C377,51.2080201 376.350847,51.9280018 375.48531,51.9280018 L375.194848,51.9280018 C374.473567,51.9280018 373.896542,51.4220688 373.317568,50.7020871 L338.610304,6.76179938 L338.610304,50.1980999 C338.610304,51.2080201 337.814945,52 336.805152,52 C335.793409,52 335,51.2080201 335,50.1980999 L335,2.94395055 Z" id="Fill-30" fill="#044DA1"></path><path d="M303.001951,22.2854339 C304.020488,22.2854339 304.847805,21.4571396 304.847805,20.4286415 L304.847805,1.85679236 C304.847805,0.832219832 304.020488,0 303.001951,0 C301.981463,0 301.156098,0.834182614 301.156098,1.85679236 L301.156098,20.4286415 C301.156098,21.4571396 301.981463,22.2854339 303.001951,22.2854339 M327,27.8577738 C327,41.1693655 316.233171,52 303.001951,52 C289.76878,52 279,41.1674027 279,27.8577738 C279,20.9723323 281.936585,14.393085 287.054634,9.81391311 C287.81561,9.13282754 288.98439,9.19759937 289.661463,9.96701015 C290.340488,10.7364209 290.272195,11.9042766 289.51122,12.587325 C285.177561,16.4677462 282.693659,22.0302721 282.693659,27.8577738 C282.693659,39.1221832 291.803902,48.2844525 303.001951,48.2844525 C314.2,48.2844525 323.308293,39.1221832 323.308293,27.8577738 C323.308293,22.0302721 320.828293,16.4677462 316.500488,12.5951761 C315.73561,11.9121277 315.663415,10.7364209 316.342439,9.97486128 C317.025366,9.19759937 318.194146,9.13282754 318.953171,9.81391311 C324.065366,14.393085 327,20.9723323 327,27.8577738" id="Fill-32" fill="#044DA1"></path></g></g></g></svg> 