<svg xmlns="http://www.w3.org/2000/svg" width="113.23mm" height="12.34mm" viewBox="0 0 320.97 34.99"><path d="M170.89,11.79V5.33a.58.58,0,0,1,.48-.58l2.46-.68c.34,0,.6,0,.58.48v7.24h7.05c.46,0,.48.32.39.63-.26.53-.36,2.4-1.16,2.27h-6.28V27.93c-.4,5.26,3.64,4.12,7.39,2.56.2.12.29.22.29.29l.58,1.93c.13.28,0,.53-.34.72-5.39,2.62-12,2.16-11.44-5.46V14.69h-3.34c-.38,0-.58-.18-.58-.53V12.32c0-.35.2-.53.58-.53h3.34M151.13,21h10.19C162,12,150.74,11.15,151.13,21Zm0,2.9c-.13,7.94,6.05,9.73,12.08,6.08.22.1.33.18.33.25a20.64,20.64,0,0,1,1,2.17c-3.19,3.43-11.65,3.66-14.61-.6-3.51-3.92-3.47-13.4-.12-17.37,2.84-4.1,10.07-4.34,13.09-.53q2.26,2.7,2.27,7.73c-.07.53.26,2.32-.53,2.27ZM129.39,21h10.2C140.22,12,129,11.15,129.39,21Zm0,2.9c-.13,7.94,6.05,9.73,12.08,6.08.23.1.34.18.34.25a20.54,20.54,0,0,1,1,2.17c-3.19,3.43-11.65,3.67-14.61-.6-3.51-3.92-3.47-13.4-.12-17.37,2.84-4.1,10.08-4.34,13.09-.53,1.52,1.8,2.27,4.38,2.27,7.73-.07.53.26,2.32-.53,2.27ZM115,15.08c2.32-2.77,4.91-5.22,8.16-3.24a.19.19,0,0,0,0,.1c.06.07-1.19,2.74-1.25,2.89s-.08.13-.25.2c-2.9-1.11-4.07.85-6.23,3.24V33.82a.47.47,0,0,1-.53.53h-2.46a.47.47,0,0,1-.53-.53V19.65c0-3.54,0-4.12-1.36-6.83.11-.43,1.92-1.4,2.23-1.66C114.06,10.84,114.74,13.91,115,15.08ZM96.11,11.79V5.33a.59.59,0,0,1,.49-.58l2.46-.68c.34,0,.59,0,.58.48v7.24h7c.46,0,.47.32.39.63-.26.53-.36,2.4-1.16,2.27H99.64V27.93c-.4,5.26,3.64,4.12,7.39,2.56.19.12.29.22.29.29l.58,1.93c.13.28,0,.53-.34.72-5.39,2.62-12,2.16-11.45-5.46V14.69H92.78c-.39,0-.58-.18-.58-.53V12.32c0-.35.19-.53.58-.53ZM75.3,32.56c.24-.38.81-2.38,1.2-2.27,3.53,1.68,9.38,3.4,9.76-1.74,0-3.52-6.38-4.36-8.21-6.42-4.84-3.85-1-11.49,5-11,2,.1,4.74.36,6,1.93l-.09.34c-.24.32-.77,2.11-1.26,2.07C84.55,13.89,79.45,13,79.4,17.3c0,1.45.85,2.59,2.56,3.43l3.29,1.59C93.09,25.2,90.39,35.38,82.44,35a13.39,13.39,0,0,1-6.9-1.79A.48.48,0,0,1,75.3,32.56Zm-10-6.71V1.51a.57.57,0,0,1,.53-.59L68.2.34c.36,0,.64,0,.62.54v28c-.08,3.19,1.91,3.61,4.11,2.47.25-.12.58-.17.67.19.06.15.67,2,.68,2.12-1.93,1.7-6.6,1.57-7.94-.29C65.27,32.3,65.17,28.16,65.25,25.85Zm-12.17,0V1.51a.56.56,0,0,1,.53-.59L56,.34c.37,0,.65,0,.63.54v28c-.08,3.19,1.9,3.61,4.11,2.47.25-.12.58-.17.67.19.06.15.67,2,.68,2.12-1.93,1.7-6.6,1.57-8-.29C53.1,32.3,53,28.16,53.08,25.85Zm-11.4-2.71q-8.79,0-8.79,5c.23,5.18,5.57,4.4,8.79,1.06Zm0-2.94c0-1.53,0-4.06-1-4.81-2.4-1.85-6.13-.7-9.25.56-.23-.1-.34-.18-.34-.25l-.68-1.88c-.13-.35-.14-.57.29-.84,5.13-2.86,15-2.76,14.49,4.9v8.84c0,3,.1,4.06,1.36,6.42l-.15.29A22.89,22.89,0,0,1,44,34.83c-.75-.28-1.45-2-1.74-2.94C37.93,36.6,29,35.68,29.26,28.41Q29.26,20.21,41.68,20.2ZM7.13,30c.12-1.42,4.56-16.08,5-17.82a.57.57,0,0,1,.58-.43h2.08c.16,0,.29.14.39.43L19,27.93a8.5,8.5,0,0,1,.4,1.88c-.11-.64,4.15-17.07,4.37-18.11.15-.39.34-.35.63-.34l2.16.6c.43.16.53.25.42.56L20.76,34.25c0,.2-.25.34-.38.44H18.16c-.16,0-.29-.16-.38-.48-.67-2.78-4.18-15.3-4.31-17.93-.05,2.48-4.43,15.36-5.11,18-.1.29-.24.44-.44.44H5.79q-.24,0-.39-.48L0,12.61A.45.45,0,0,1,.43,12l2.35-.6c.27,0,.59,0,.62.34C3.75,13.53,6.93,28.53,7.13,30Z" fill="#fff"/><path d="M307.3,19.66h7.44c-.11-3.19-.28-5.24-3.43-5.36C308.12,14.42,307.8,16.44,307.3,19.66Zm0,4.35c-.22,7.24,6.48,6.71,11.16,4.3a.53.53,0,0,1,.53.43A32.15,32.15,0,0,1,320.34,32a1,1,0,0,1-.55.79,16.73,16.73,0,0,1-7.9,2c-7.32,0-10.5-4.95-10.48-12.22C301.33,15.94,304.84,10,311.65,10Q321,10,321,22.8c0,.94-.09,1.19-1.06,1.21ZM283.68,13c5.05-4.87,13.77-4.15,13.14,4.44V33.19c0,.79,0,.79-.82.82-.44,0-4.73.13-5-.12a1.21,1.21,0,0,1-.12-.7V18.74c.1-5-3.89-4.66-6.81-2V33.19a1.21,1.21,0,0,1-.12.7c-.27.26-4.61,0-5.05.12-.85,0-.74-.07-.77-.82V17.5A13.14,13.14,0,0,0,277,12c0-.19.14-.34.43-.43L281.56,10l.19-.19C282.67,9.72,283,10.71,283.68,13ZM271.75,3.91c0,5-7.6,5-7.58,0S271.68-1,271.75,3.91Zm-6.62,11.26c-.44-.07-4,.16-4.27-.15a31.22,31.22,0,0,1-.07-3.38c0-.65,0-.81.77-.82h8.74c.85,0,.74.06.78.82V33.19c0,.65,0,.81-.78.82-.47,0-4.74.13-5-.12a1.19,1.19,0,0,1-.13-.7ZM255.63,0c.58,0,1.09-.11,1.05.82V26.91c-.1,2.79,1,2.63,3.14,2.07.23.13.34.23.34.29.06.26,1,4.09,1.06,4.25-1.76,1.53-5,1.59-7.22.87-2.92-1.19-3.29-3.51-3.26-6.73V1.75a.81.81,0,0,1,.72-.88ZM231.52,13c5-4.87,13.76-4.15,13.13,4.44V33.19c0,.79,0,.79-.82.82-.44,0-4.72.13-5-.12a1.21,1.21,0,0,1-.12-.7V18.74c.11-5-3.88-4.66-6.81-2V33.19a1.21,1.21,0,0,1-.12.7c-.27.26-4.6,0-5.05.12-.84,0-.73-.06-.77-.82V17.5A13,13,0,0,0,224.8,12c0-.19.15-.34.44-.43L229.39,10l.19-.19C230.5,9.72,230.86,10.71,231.52,13ZM210.75,30.09c3.8-.35,3.66-3.69,3.86-7.68-.21-4,0-7.33-3.86-7.68-3.83.37-3.66,3.71-3.87,7.73C207.1,26.52,206.87,29.75,210.75,30.09Zm10.19-7.63c.54,16.62-21.05,16.6-20.39-.09C200.05,5.85,221.65,5.67,220.94,22.46Z" fill="#fff"/><path d="M195.38,14.23c-.07,5.84-8.82,5.84-8.89,0s8.82-5.84,8.89,0m0,15.46c-.07,5.84-8.82,5.84-8.89,0S195.31,23.84,195.38,29.69Z" fill="#a21a17"/></svg>