<?xml version="1.0" encoding="UTF-8"?>
<!DOCTYPE svg PUBLIC "-//W3C//DTD SVG 1.1//EN" "http://www.w3.org/Graphics/SVG/1.1/DTD/svg11.dtd">
<svg version="1.1" xmlns="http://www.w3.org/2000/svg" xmlns:xlink="http://www.w3.org/1999/xlink" x="0" y="0" width="517" height="118" viewBox="0, 0, 517, 118">
  <defs>
    <clipPath id="Clip_1">
      <path d="M0,118 L516.693,118 L516.693,0.541 L0,0.541 z"/>
    </clipPath>
  </defs>
  <g id="Layer_1">
    <g clip-path="url(#Clip_1)">
      <path d="M2.259,92.136 L48.843,92.136 L49.774,96.151 L2.247,92.362 C2.08,92.348 2.091,92.136 2.259,92.136" fill="#FFFFFE"/>
      <path d="M0.039,91.809 L53.898,0.541 L53.898,117.721 C53.898,118.024 53.457,118.061 53.411,117.761 C51.513,105.357 44.995,64.743 38.104,61.297 C32.508,58.499 8.42,84.654 0.435,92.094 C0.216,92.299 -0.114,92.067 0.039,91.809" fill="#FFFFFE"/>
      <path d="M109.962,91.809 L56.103,0.541 L56.103,117.721 C56.103,118.024 56.544,118.061 56.59,117.761 C58.488,105.357 65.005,64.743 71.897,61.297 C77.493,58.499 101.581,84.654 109.566,92.094 C109.785,92.299 110.115,92.067 109.962,91.809" fill="#FFFFFE"/>
      <path d="M61.131,92.136 L109.046,92.136 C109.176,92.136 109.217,92.31 109.101,92.369 L57.823,117.994 C57.776,118.018 57.727,117.96 57.763,117.92 C59.346,116.164 74.423,103.708 73.87,101.26 C73.226,98.414 60.227,96.685 60.227,96.685 L61.131,92.136" fill="#FFFFFE"/>
    </g>
    <path d="M144.329,31.117 L141.605,35.807 L171.423,35.807 L141.372,87.392 L180.13,87.392 L180.13,82.703 L149.836,82.703 L179.721,31.117 L144.329,31.117" fill="#FFFFFE"/>
    <path d="M204.028,31.117 L204.028,87.392 L241.545,87.392 L241.545,82.703 L208.718,82.703 L208.718,61.599 L241.545,61.599 L241.545,56.91 L208.718,56.91 L208.718,35.807 L241.545,35.807 L241.545,31.117 L204.028,31.117" fill="#FFFFFE"/>
    <path d="M310.322,31.117 L310.322,76.137 L268.116,31.117 L268.116,87.392 L272.806,87.392 L272.806,42.372 L315.013,87.392 L315.013,31.117 L310.322,31.117" fill="#FFFFFE"/>
    <path d="M364.751,87.392 C356.966,87.392 350.33,84.649 344.844,79.162 C339.357,73.675 336.614,67.039 336.614,59.255 C336.614,51.47 339.357,44.834 344.844,39.347 C350.33,33.86 356.966,31.117 364.751,31.117 C372.536,31.117 379.171,33.86 384.659,39.347 C390.146,44.834 392.889,51.47 392.889,59.255 C392.889,67.039 390.146,73.675 384.659,79.162 C379.171,84.649 372.536,87.392 364.751,87.392 M363.193,82.659 C370.864,83.08 377.266,80.428 382.398,74.702 C385.825,70.878 387.874,65.939 388.155,60.812 C388.576,53.141 385.925,46.74 380.199,41.608 C376.375,38.179 371.436,36.131 366.309,35.85 C358.639,35.429 352.237,38.081 347.105,43.807 C343.677,47.63 341.627,52.569 341.346,57.696 C340.926,65.367 343.578,71.769 349.303,76.901 C353.127,80.329 358.065,82.377 363.193,82.659" fill="#FFFFFE"/>
    <path d="M417.648,61.599 L417.648,87.392 L412.959,87.392 L412.959,31.117 L434.821,31.117 C443.286,31.117 450.46,37.839 450.476,46.305 C450.492,56.501 445.413,61.599 435.234,61.599 L417.648,61.599 z M417.648,35.806 L417.648,56.91 L435.234,56.909 C440.955,56.909 445.715,52.337 445.784,46.617 C445.871,39.409 442.355,35.806 435.234,35.806 L417.648,35.806" fill="#FFFFFE"/>
    <path d="M484.192,31.117 L452.273,87.392 L457.666,87.392 L484.192,42 L511.3,87.392 L516.693,87.392 L484.192,31.117" fill="#FFFFFE"/>
  </g>
</svg>
